<?xml version="1.0" standalone="no"?>
<!DOCTYPE svg PUBLIC "-//W3C//DTD SVG 1.1//EN" "http://www.w3.org/Graphics/SVG/1.1/DTD/svg11.dtd" >
<svg xmlns="http://www.w3.org/2000/svg">
<metadata></metadata>
<defs>
<font id="FontinBold" horiz-adv-x="1042" >
<font-face units-per-em="2048" ascent="1638" descent="-410" />
<missing-glyph horiz-adv-x="614" />
<glyph unicode="&#xfb01;" horiz-adv-x="1312" d="M72 969l10 61q40 4 74.5 32t41.5 96.5t37 135.5t74.5 111.5t96 77.5t108.5 51q109 35 203.5 35t190 -27.5t163.5 -86.5t68 -127t-41 -108t-97 -40q-88 0 -133 65q4 20 4 29q0 62 -63 103.5t-156 41.5t-164 -56.5t-71 -139.5v-13l10 -139q0 -24 -2 -37h137q91 0 109 33 q6 -21 6 -49q0 -125 -158 -125l-90 8v-121q0 -625 35 -780h-287q10 195 10 664q0 199 -19 226q-40 59 -97 79zM788 946v37q119 72 222 72q147 0 147 -195l-10 -213v-201q0 -286 22 -446h-286l10 698q0 165 -67 226q-24 22 -38 22z" />
<glyph unicode="&#xfb02;" horiz-adv-x="1310" d="M72 969l10 61q40 4 74.5 32t41.5 96.5t37 135.5t74.5 111.5t96 77.5t108.5 51q109 35 204.5 35t200 -24.5t177.5 -72.5t73 -106q0 -27 -5 -86q-21 -218 -21 -639t24 -641h-286q14 1206 2 1315q-37 45 -97.5 74.5t-143 29.5t-153.5 -56.5t-71 -139.5l10 -152q0 -24 -2 -37 h137q91 0 109 33q6 -21 6 -49q0 -125 -158 -125l-90 8v-121q0 -625 35 -780h-287q10 195 10 664q0 199 -19 226q-40 59 -97 79z" />
<glyph unicode="&#xfb03;" horiz-adv-x="1658" />
<glyph horiz-adv-x="0" />
<glyph horiz-adv-x="0" />
<glyph horiz-adv-x="2048" />
<glyph unicode="&#xd;" horiz-adv-x="682" />
<glyph horiz-adv-x="1024" />
<glyph unicode=" "  horiz-adv-x="614" />
<glyph unicode="&#x09;" horiz-adv-x="614" />
<glyph unicode="&#xa0;" horiz-adv-x="614" />
<glyph unicode="!" horiz-adv-x="595" d="M113 1468v39l25 15q75 45 167 45q178 0 178 -146q0 -56 -26 -207t-63 -506l-38 -354h-100l-94 967q-8 103 -38 136zM156 112q0 58 42 100t99.5 42t98 -42t40.5 -100t-40.5 -98.5t-98 -40.5t-99.5 40.5t-42 98.5z" />
<glyph unicode="&#x22;" horiz-adv-x="786" d="M41 1118q74 66 95 210q9 57 16 110q16 116 73 116h148l-23 -165q-30 -210 -186 -271q-25 -9 -71.5 -7t-51.5 7zM369 1118q75 67 95 210q8 57 16 110q16 116 73 116h147l-22 -165q-31 -210 -186 -271q-25 -9 -71.5 -7t-51.5 7z" />
<glyph unicode="#" horiz-adv-x="1441" d="M76 377l16 164q31 -7 144 -7.5t159 -1.5q5 76 23 238h-142q-142 -1 -163 -6l16 164q29 -5 303 -8q17 191 17 259.5t-8.5 111t-8.5 55.5q62 45 97.5 45t53 -11.5t24.5 -37.5q11 -41 11 -90t-30 -332h241q17 177 17 252.5t-8.5 118t-8.5 55.5q61 45 94.5 45t49.5 -9 t24.5 -21.5t12.5 -36.5q6 -36 6 -73.5t-31 -330.5h121q222 0 266 28q-18 -112 -88 -148q-66 -36 -129 -33.5t-106 1.5h-82l-27 -236h156t87 0.5t48 2.5t42 5q42 7 62 21q-18 -113 -87 -148q-70 -35 -131.5 -33t-104.5 1h-86q-21 -195 -29 -377l-174 -39q23 117 36.5 254.5 t16.5 161.5h-248q-20 -202 -28 -377l-170 -37l49 416q-270 0 -303 -6zM545 532h246q5 45 12.5 124.5t11.5 111.5h-244q-16 -152 -26 -236z" />
<glyph unicode="$" horiz-adv-x="937" d="M72 1009.5q0 75.5 26.5 140.5t76.5 118.5t130.5 86.5t179.5 34v143q47 10 78 10q49 0 47 -64q0 -16 -1 -29t-3 -34l-2 -35q123 -19 191.5 -77t68.5 -132q0 -36 -16 -86q-3 46 -81 85.5t-179 52.5q-4 -56 -33 -381q158 -99 200 -140t74 -78.5t49 -73.5q42 -84 42 -177 q0 -155 -116 -267t-302 -129l-10 -194h-121l14 194q-131 13 -218 77.5t-87 146.5q0 50 33 94q10 -41 59 -76q93 -66 227 -80l33 416q-151 98 -194 140.5t-75.5 80.5t-48.5 72q-42 86 -42 161.5zM309 1100q0 -56 37.5 -101t108.5 -94l20 322q-74 -6 -120 -38.5t-46 -88.5z M512 145q68 14 111 55t43 99.5t-34.5 100t-99.5 89.5q-3 -41 -20 -344z" />
<glyph unicode="%" horiz-adv-x="1787" d="M92 1032.5q0 163.5 108 265t264 101.5t246.5 -89t89 -247t-111.5 -263.5t-285 -105.5q-135 0 -223 87.5t-88 251zM305 0q534 761 717.5 1032t187.5 320q44 45 109 45q32 0 54 -14.5t22 -47.5t-29.5 -81.5t-88.5 -120t-83 -105.5l-709 -1028h-180zM311 1063.5 q0 -114.5 37.5 -190.5t98.5 -76t100 62.5t39 175.5t-41.5 186t-105 73t-96 -58t-32.5 -172.5zM956 315.5q0 163.5 108 265t264.5 101.5t246.5 -89t88.5 -247t-111.5 -263.5t-284 -105.5q-135 0 -223.5 87.5t-88.5 251zM1176 347q0 -114 37.5 -190.5t98.5 -76.5t99.5 62 t38.5 176t-41.5 187t-104.5 73t-95.5 -58.5t-32.5 -172.5z" />
<glyph unicode="&#x26;" horiz-adv-x="1554" d="M90 356q0 -165 120 -274t316 -109q100 0 213 37.5t189 102.5q192 -136 372 -136q120 0 183 54.5t63 136.5q-70 -37 -129 -37q-124 0 -334 176q120 231 140 565q52 -4 73 -4q174 0 174 127q0 29 -4 45q-36 -32 -131 -32h-272l-29 -41q23 -99 23 -209q0 -211 -74 -355 q-207 214 -362 455q126 78 182.5 136.5t92.5 103.5q77 98 77 207t-95.5 185.5t-268 76.5t-290.5 -100t-118 -257.5t141 -412.5q-119 -92 -185.5 -206.5t-66.5 -234.5zM315 492.5q0 131.5 84 214.5q197 -302 426 -512q-67 -56 -172 -56q-143 0 -240.5 111t-97.5 242.5z M434 1296q0 69 41 105.5t117.5 36.5t125 -55.5t48.5 -137.5q0 -155 -203 -293q-129 222 -129 344z" />
<glyph unicode="'" horiz-adv-x="425" d="M41 1118q74 66 95 210q9 57 16 110q16 116 73 116h148l-23 -165q-30 -210 -186 -271q-25 -9 -71.5 -7t-51.5 7z" />
<glyph unicode="(" horiz-adv-x="688" d="M100 480q0 -176 48.5 -359.5t125.5 -323.5t179 -228.5t204 -88.5l-23 32q-119 173 -202 434q-78 247 -78 539q0 371 148 671q60 124 125 198l22 26q-118 0 -221.5 -75.5t-174.5 -200.5t-112 -286.5t-41 -337.5z" />
<glyph unicode=")" horiz-adv-x="694" d="M55 -520l23 32q119 173 202 434q78 247 78 539q0 371 -148 671q-60 124 -125 198l-22 26q157 0 284.5 -129t196 -333t68.5 -439.5t-80.5 -469.5t-210.5 -381.5t-266 -147.5z" />
<glyph unicode="*" horiz-adv-x="884" d="M12 1096q31 172 283 172h4q-44 91 -89 159.5t-65 75.5q41 13 68 13q124 0 219 -168l4 6q125 197 125 250q0 1 -1 3t-1 3q72 -58 72 -144.5t-60 -187.5l-12 -18h144q142 0 163 16q-14 -89 -82 -130.5t-163 -41.5h-58q103 -183 128 -215t36 -37q-37 -12 -85 -12t-99.5 38.5 t-87.5 102.5l-29 51l-2 2q-127 -221 -127 -258q-72 61 -72 144t43 157l21 35q-37 2 -145 2t-132 -18z" />
<glyph unicode="+" horiz-adv-x="964" d="M98 438v164q52 -8 299 -8v110q0 157 -24 193q52 16 85 16t52.5 -8.5t28.5 -27.5q14 -30 14 -89v-45l-2 -149h67q165 -4 207.5 6.5t59.5 22.5q-18 -111 -89 -149q-68 -36 -130 -33.5t-105 1.5h-12q-2 -96 -2 -194t6 -123h-164q8 24 8 317l-207 2q-54 0 -92 -6z" />
<glyph unicode="," horiz-adv-x="456" d="M55 -225q129 121 129 239q0 58 -16 69q-24 15 -39 17q-8 49 32.5 101.5t102 52.5t104 -41t42.5 -119t-78 -184.5t-226 -200.5z" />
<glyph unicode="-" horiz-adv-x="632" d="M39 422v162q0 -9 259 -9t288 21q-6 -69 -26.5 -94t-35 -38t-39 -21t-43 -13t-50.5 -7q-48 -3 -109 -3l-205 4q-31 0 -39 -2z" />
<glyph unicode="." horiz-adv-x="528" d="M127 112q0 58 42.5 100t99.5 42t98 -42t41 -100t-41 -98.5t-98 -40.5t-99.5 40.5t-42.5 98.5z" />
<glyph unicode="/" horiz-adv-x="618" d="M-59 -500q178 709 284.5 1216.5t106.5 618.5v13q13 21 49 42t86 21q88 0 88 -74q0 -46 -41 -195t-185 -784t-188 -858h-200z" />
<glyph unicode="0" horiz-adv-x="1226" d="M92 592.5q0 -170.5 38 -290t105 -190.5q133 -141 319.5 -141t318 89.5t197 236t65.5 312t-37 281.5t-102 188q-133 147 -341 147q-170 0 -299 -84.5t-196.5 -231t-67.5 -317zM352 662q2 170 67.5 292.5t160.5 122.5q125 0 207.5 -148.5t82.5 -360.5t-72 -339.5 t-169 -130.5q-79 1 -141 74q-130 152 -136 490z" />
<glyph unicode="1" horiz-adv-x="710" d="M31 1055l395 174h43l61 -103l-3 -64q-3 -65 -3 -87l4 -811q0 -78 19 -164h-277l2 80l9 784q3 80 -21 117l-182 -57z" />
<glyph unicode="2" horiz-adv-x="950" d="M72 0v96l32 33q34 36 74.5 74.5t85.5 89t88 101.5t82 113t68 123q65 135 65 273t-75 182q-29 17 -81 17t-92.5 -37t-29.5 -96q-36 -41 -86.5 -41t-83.5 27.5t-33 76.5q0 88 106.5 140.5t233.5 52.5t208 -26t126 -71q88 -87 88 -204q0 -83 -40 -177.5t-100 -174.5 t-130 -156q-107 -115 -231 -214l-40 -32h377q89 0 130.5 8t64.5 37q10 -37 10 -74q0 -136 -182 -141h-635z" />
<glyph unicode="3" horiz-adv-x="958" d="M31 -57q61 -9 114.5 -9t126.5 21t139.5 62t111.5 111t52 159q-3 188 -127 254q-59 31 -141 45l29 61q92 42 155.5 119t63.5 158t-40 129.5t-95 48.5t-94 -30.5t-39 -80.5q0 -14 2 -22q-38 -41 -87.5 -41t-82.5 29t-33 79q0 76 101 132.5t222.5 56.5t200.5 -24.5 t123 -64.5q88 -80 88 -180q0 -173 -243 -301q208 -38 264 -182q24 -62 24 -155.5t-42 -178.5t-109.5 -141t-156.5 -95t-181 -56t-159 -17t-99 11.5t-48 28.5q-33 33 -40 73z" />
<glyph unicode="4" horiz-adv-x="1071" d="M51 225q76 227 260 537q99 166 198.5 297t158.5 170h163l-7 -164q-3 -68 -3 -90v-613q110 0 151 12t58 34q10 -38 10 -85t-44 -88.5t-134 -41.5l-39 2q0 -70 -1 -131q-1 -147 22 -232h-269l7 361h-500zM279 362h296l13 469q1 35 10 95l8 59q-90 -120 -179 -290.5 t-148 -332.5z" />
<glyph unicode="5" horiz-adv-x="960" d="M82 -57q62 -9 107.5 -9t99.5 13.5t103.5 43t86.5 71.5q82 95 86 245q0 236 -155 310q-103 50 -258 20l-23 37l37 500l33 24h403q115 0 160.5 7t71.5 38q25 -115 -22 -165q-46 -48 -165 -50h-344l-8 -258q63 8 144.5 -3.5t128 -28t88.5 -38t77.5 -56.5t62.5 -76 q56 -89 56 -206.5t-36 -204t-96.5 -146t-140.5 -101.5q-155 -80 -346 -80q-50 0 -84 18q-51 26 -63 78z" />
<glyph unicode="6" horiz-adv-x="1167" d="M131 580q0 -302 153 -477q113 -130 300 -130q148 0 261 73t169.5 188.5t56.5 233t-30 192.5t-83 120q-107 88 -251.5 88t-284.5 -82q22 228 112 345.5t205 117.5q74 0 160 -36t131 -103q32 83 -9.5 148.5t-128.5 98t-167.5 32.5t-134.5 -12.5t-110.5 -42t-107 -73 t-95 -109t-76.5 -146.5q-70 -177 -70 -426zM416 643v55q20 13 76.5 27t99.5 14q97 0 151 -87t54 -239t-43 -233.5t-111.5 -81.5t-113 49.5t-67.5 132.5q-46 159 -46 363z" />
<glyph unicode="7" horiz-adv-x="933" d="M61 1169q0 -30 7.5 -58.5t28.5 -59t54 -52.5q77 -51 252 -51t261 56l-400 -910q-52 -118 -84.5 -162t-62.5 -57q59 -45 129 -45q108 0 164 127l524 1208l-33 33h-686q-116 0 -145 37q-9 -36 -9 -66z" />
<glyph unicode="8" horiz-adv-x="1120" d="M123 293.5q0 133.5 86.5 240.5t196.5 154q-104 73 -171 167t-67 183q0 157 115.5 254t295 97t278.5 -74.5t99 -194.5q0 -178 -247 -334q197 -146 261 -231q68 -91 68 -192t-65.5 -194t-178.5 -144.5t-273.5 -51.5t-279 93.5t-118.5 227zM338 387.5q0 -70.5 11 -115 t35 -84.5q53 -84 177 -84q74 0 138.5 57t64.5 146q0 84 -96 170q-95 85 -195 156q-64 -35 -99.5 -105t-35.5 -140.5zM426 1109.5q0 -71.5 55 -135t152 -136.5q42 28 73 90t31 150t-44 138t-115 50t-111.5 -42.5t-40.5 -114z" />
<glyph unicode="9" horiz-adv-x="1183" d="M113 732.5q0 -117.5 30 -192.5t83 -120q105 -88 249 -88t287 82q-22 -228 -112 -345.5t-206 -117.5q-74 0 -159.5 36t-130.5 103q-48 -124 62 -204q101 -74 269 -74q166 0 305 110q163 130 227 382q36 142 36 274t-15.5 216.5t-50.5 164t-87 138.5q-113 130 -300 130 q-148 0 -261 -73t-169.5 -188.5t-56.5 -233zM387 787q0 152 43 233.5t111.5 81.5t113 -49.5t67.5 -132.5q46 -159 46 -363v-55q-21 -13 -77.5 -27t-98.5 -14q-97 0 -151 87t-54 239z" />
<glyph unicode=":" horiz-adv-x="528" d="M127 112q0 58 42.5 100t99.5 42t98 -42t41 -100t-41 -98.5t-98 -40.5t-99.5 40.5t-42.5 98.5zM127 663q0 58 42.5 100t99.5 42t98 -42t41 -100t-41 -98.5t-98 -40.5t-99.5 40.5t-42.5 98.5z" />
<glyph unicode=";" horiz-adv-x="528" d="M55 -225q129 121 129 239q0 58 -16 69q-24 15 -39 17q-8 49 32.5 101.5t102 52.5t104 -41t42.5 -119t-78 -184.5t-226 -200.5zM127 663q0 58 42.5 100t99.5 42t98 -42t41 -100t-41 -98.5t-98 -40.5t-99.5 40.5t-42.5 98.5z" />
<glyph unicode="&#x3c;" horiz-adv-x="755" d="M39 506l21 -16q20 -16 36 -35l271 -322q51 -57 153.5 -82t190.5 -6q-28 12 -64 44t-43 42l-231 313q-16 21 -45 42l-29 22l29 20q30 21 41 35l227 303l45 45q45 45 66 52q-89 19 -193 -6t-156 -85l-266 -319q-11 -13 -32 -30z" />
<glyph unicode="=" horiz-adv-x="983" d="M92 266v166q0 -8 292 -8h339q158 0 182 16q-28 -174 -303 -174l-473 2q-29 0 -37 -2zM92 588v166q0 -9 292 -9h339q160 0 182 17q-28 -174 -303 -174l-473 2q-29 0 -37 -2z" />
<glyph unicode="&#x3e;" horiz-adv-x="755" d="M39 45q28 12 63.5 44t42.5 42l232 313q15 21 45 42l29 22l-30 20q-30 21 -40 35l-227 303l-45 45q-45 45 -66 52q89 19 192.5 -5.5t155.5 -85.5l266 -319q12 -13 33 -30l21 -17l-21 -16q-20 -16 -37 -35l-270 -322q-51 -57 -153.5 -82t-190.5 -6z" />
<glyph unicode="?" horiz-adv-x="901" d="M20 1328q0 65 52 122q107 117 318 117t321 -103t110 -252q0 -146 -94 -280q-81 -115 -162 -193t-123 -119.5t-68 -78.5t-26 -71.5t29 -80.5l-53 -35q-151 66 -154 201q-2 114 78 218q40 51 124 139t120 134q81 102 81 214q0 68 -42 124t-128 56q-51 0 -99 -36.5 t-48 -100.5q0 -24 8 -58q-40 -53 -101 -53t-102 35.5t-41 100.5zM190 112q0 58 42.5 100t100 42t98 -42t40.5 -100t-40.5 -98.5t-98 -40.5t-100 40.5t-42.5 98.5z" />
<glyph unicode="@" horiz-adv-x="1847" d="M90 406.5q0 192.5 71.5 368.5t192.5 304t288 203.5t365 75.5t369.5 -94t268 -260.5t96.5 -359t-64.5 -349t-184 -253.5t-267.5 -97q-79 0 -141.5 53t-63.5 133q-46 -70 -112 -112t-147.5 -42t-158.5 57.5t-120.5 153t-43.5 203.5q0 190 83.5 341t224.5 233t311 82 q87 0 223 -41q-38 -600 -29 -838q2 -56 36.5 -70.5t77.5 6.5q99 47 167 242q39 110 39 235.5t-51 243t-136 202t-201 135t-241 50.5q-185 0 -336.5 -98t-238 -271.5t-86.5 -387.5q0 -280 149 -473.5t381 -235.5q94 -11 139 18q-22 -100 -86 -133q-54 -28 -136.5 -28t-168 33 t-155.5 90t-129 135t-99 167q-86 186 -86 378.5zM686 428.5q0 -113.5 56 -198.5t121.5 -85t131.5 80l27 709q-83 -9 -147 -56t-101 -100t-62.5 -144.5t-25.5 -205z" />
<glyph unicode="A" horiz-adv-x="1263" d="M-10 0l461 1182q26 101 113.5 155.5t219.5 63.5q20 -104 47 -180l365 -1045q40 -115 78 -176h-328l-4 33q-4 33 -16 67l-121 344h-469l-146 -411l-6 -33h-194zM383 580h373l-185 526z" />
<glyph unicode="B" horiz-adv-x="1169" d="M154 1315l16 43l395 10h25q198 0 304 -91q105 -91 105 -210q0 -166 -202 -291q290 -87 290 -354q0 -193 -142 -307.5t-382 -114.5h-364l6 147v940q0 154 -27 198q-8 13 -24 30zM487 811h70q81 0 137 -12q29 33 48.5 94.5t19.5 114.5q0 94 -56 162q-54 65 -141 65h-8 l-59 -2v-47zM489 696q-5 -151 -5 -276q0 -177 10 -301h88q124 0 189 69t65 166q0 161 -86.5 247.5t-219.5 92.5z" />
<glyph unicode="C" horiz-adv-x="1277" d="M86 649q0 325 192.5 530t503.5 205q145 0 267 -52t159 -128q0 -39 -44 -110.5t-109 -100.5l-39 31q0 38 -34.5 84t-64.5 72q-70 61 -160.5 61t-162 -41.5t-114.5 -113.5q-87 -146 -87 -349q0 -252 103 -420q50 -83 131 -130.5t183.5 -47.5t221 59.5t170.5 159.5 q14 -40 14 -79q0 -63 -38 -119q-60 -91 -184 -140q-119 -47 -261 -47h-12q-202 0 -347 87q-288 172 -288 589z" />
<glyph unicode="D" horiz-adv-x="1417" d="M154 1317l16 43l496 10h16q203 0 365 -101q180 -112 247 -313q37 -108 37 -247.5t-47 -272t-131.5 -229t-208 -152t-270.5 -55.5h-473q4 70 4 106v967q0 182 -51 244zM489 514q0 -187 7 -381h202q125 0 224 123q106 131 106 358q0 173 -60.5 315t-165.5 222 q-100 76 -219 76h-12l-71 -2z" />
<glyph unicode="E" horiz-adv-x="1052" d="M154 1317l16 43h342l377 6q35 -52 41 -120l2 -30q0 -51 -17 -98h-47q-9 44 -67 75t-123 34l-180 8q-13 -236 -13 -469h256q94 0 131 37q7 -38 7 -70q0 -127 -187 -127l-209 4v-54q0 -111 3 -238l3 -160h359q70 0 102 43q6 -43 6 -68q0 -76 -55 -104.5t-176 -28.5h-524 l2 150v937q-4 146 -16 173t-33 57z" />
<glyph unicode="F" horiz-adv-x="995" d="M154 1317l16 43h342l377 6q35 -52 41 -120l2 -30q0 -51 -17 -98h-47q-9 44 -67 75t-123 34l-180 8q-13 -236 -13 -469h256q94 0 131 37q7 -38 7 -70q0 -127 -187 -127l-209 4v-54q0 -111 3 -238l3 -160l5 -64q4 -63 14 -94h-309l4 150v937q-4 146 -16 173t-33 57z" />
<glyph unicode="G" horiz-adv-x="1368" d="M86 658.5q0 315.5 192.5 520.5t503.5 205q145 0 267 -52t159 -128q0 -39 -44 -110.5t-109 -100.5l-39 31q0 38 -34.5 84t-64.5 72q-70 61 -160.5 61t-162 -41.5t-114.5 -113.5q-87 -146 -87 -349q0 -316 149 -491q48 -57 117 -90t128.5 -33t123.5 11l64 11v156 q0 135 -27 177q-7 12 -28 38l16 45l22 7q63 22 154.5 22t147.5 -27q-11 -172 -15 -330l-2 -188q-41 0 -96.5 -11.5t-116.5 -24.5q-169 -36 -315 -36q-298 0 -463.5 185t-165.5 500.5z" />
<glyph unicode="H" horiz-adv-x="1589" d="M154 1317l16 43l24 7q79 22 170 22t146 -27q-15 -324 -21 -606h609q2 149 2 282t-10 180t-18.5 61.5t-27.5 37.5l17 43l24 7q75 22 166.5 22t149.5 -27q-21 -481 -21 -896t25 -466h-301q-8 47 -8 129l2 487h-609v-77q0 -486 25 -539h-309q4 136 4 1100q0 156 -55 217z " />
<glyph unicode="I" horiz-adv-x="698" d="M154 1317l16 43l24 7q79 22 170 22t146 -27q-21 -374 -21 -841.5t25 -520.5h-309q4 136 4 1100q0 156 -55 217z" />
<glyph unicode="J" horiz-adv-x="677" d="M-252 -250.5q0 53.5 36.5 83.5t81 30t75.5 -15q5 -33 32 -57t60 -24q94 0 131 89t37 281q0 881 -2 944.5t-5 97t-8.5 54t-13 37t-15.5 26t-16 21.5l17 43l24 7q79 22 169.5 22t146.5 -27q-21 -340 -21 -811l2 -215v-205q0 -288 -237 -435q-133 -83 -291 -83 q-98 0 -150.5 41.5t-52.5 95z" />
<glyph unicode="K" horiz-adv-x="1302" d="M154 1317l16 43l24 7q79 22 170 22t146 -27q-13 -229 -21 -629l416 459q37 42 37 79t-10 52l14 37q53 29 164.5 29t157.5 -27q-43 -103 -142 -199l-405 -379q138 -192 357.5 -481.5t244.5 -302.5h-373q-81 132 -225.5 344.5t-235.5 325.5v-119q0 -498 25 -551h-309 q4 136 4 1100q0 156 -55 217z" />
<glyph unicode="L" horiz-adv-x="997" d="M154 1317l16 43l24 7q79 22 170 22t146 -27q-21 -374 -21 -744t7 -485h204q76 0 146.5 32t79.5 77h49q17 -40 17 -89q0 -19 -3 -39q-9 -72 -43 -114h-741q4 136 4 1100q0 156 -55 217z" />
<glyph unicode="M" horiz-adv-x="1890" d="M178 1317l19 43q82 29 192.5 29t159.5 -35q34 -135 176 -501t242 -591q49 127 117 328t92 262l165 438q28 70 213 83q28 2 75.5 4t66.5 3q-11 -199 -11 -480q0 -328 15 -769q5 -90 16 -131h-309l2 133l2 201q0 470 -4 563l-6 117l-33 -115l-311 -762q-10 -30 -27.5 -96 t-25.5 -92l-113 26q-80 18 -123.5 66.5t-56.5 95.5q-196 471 -342 871q2 -62 2 -207q-1 -91 -1 -215q-2 -322 -8 -469q0 -71 11 -117h-185l5 43q18 334 49 1200q-31 56 -45 63t-19 11z" />
<glyph unicode="N" horiz-adv-x="1593" d="M162 1317l16 43q23 15 85 25q39 6 72 6q20 0 38 -2q63 -76 403 -452.5t376 -415t64 -103.5l29 -66l-8 66q-7 57 -7 76l1 68l2 326v210q0 139 -68 219l19 43q15 10 60 19.5t91 9.5t78 -25q-24 -544 -24 -874t10 -490h-178l-762 840l-37 57q-38 57 -47 80q6 -35 6 -100 l-4 -287q0 -429 20 -590h-180v33q2 266 2 731v342q0 80 -12 124t-45 87z" />
<glyph unicode="O" horiz-adv-x="1431" d="M82 657q0 -379 244 -572q141 -112 334 -112t353.5 97t246 262t90.5 373q0 163 -46.5 294t-127.5 214q-165 171 -412 171q-195 0 -350.5 -91.5t-243.5 -257.5t-88 -378zM385 716q0 148 39.5 265.5t110.5 186.5t160.5 69t170.5 -80.5t129.5 -219.5t48.5 -329t-87 -340.5 t-216 -150.5q-97 0 -180 86.5t-129.5 225.5t-46.5 287z" />
<glyph unicode="P" horiz-adv-x="1165" d="M154 1317l16 43l438 10q5 0 10 1q229 0 361 -135q104 -105 104 -290q0 -125 -72 -225.5t-191 -155.5t-257 -55q-24 0 -78 4q0 -412 21 -514h-303l2 80v1014q0 160 -51 223zM485 637q25 -6 76 -6q126 0 194 78t68 190q0 138 -69 237q-34 48 -91 76q-50 24 -110 24 q-9 0 -18 -1l-41 -2q-3 -31 -7 -346z" />
<glyph unicode="Q" horiz-adv-x="1431" d="M82 657q0 -373 237 -566q137 -112 310 -118q13 -107 77 -191t152.5 -126.5t198 -42.5t177.5 40t116 132q-43 -18 -153 -18t-224 57.5t-185 163.5q169 30 296 131q256 203 266 586q0 163 -46.5 294t-127.5 214q-165 171 -412 171q-195 0 -350.5 -91.5t-243.5 -257.5 t-88 -378zM385 716q0 148 39.5 265.5t110.5 186.5t160.5 69t170.5 -80.5t129.5 -219.5t48.5 -329t-87 -340.5t-216 -150.5q-97 0 -180 86.5t-129.5 225.5t-46.5 287z" />
<glyph unicode="R" horiz-adv-x="1259" d="M154 1315l16 43l438 10q5 0 10 1q230 0 362 -133q103 -105 103 -290q0 -131 -78.5 -234t-207.5 -157q28 -22 53 -51l258 -316l172 -188h-360q-48 108 -129 208q-107 132 -175 208t-88 94q-7 1 -21.5 2t-21.5 2q0 -412 21 -514h-303l2 80v1012q0 160 -51 223zM485 637 q25 -6 76 -6q126 0 194 78t68 190q0 137 -69 235q-70 100 -199 100q-10 0 -20 -1l-41 -2q-3 -32 -7 -344z" />
<glyph unicode="S" horiz-adv-x="1013" d="M92 1006q0 148 104 261q50 55 131 88.5t163.5 33.5t140 -10t107.5 -31q75 -32 132 -66q9 -23 9 -72q0 -108 -62 -170l-47 11q-21 66 -73 114q-95 88 -212 88q-97 0 -149 -60q-31 -35 -31 -88t35 -100.5t91.5 -86.5t124.5 -79.5t135.5 -87t124.5 -98.5q126 -116 126 -281 t-135.5 -282t-347.5 -117q-150 0 -254.5 68.5t-104.5 159.5q0 47 33 94q19 -66 122.5 -112t170.5 -46t105.5 8t74.5 27q80 40 80 139q0 82 -118 167q-52 38 -115.5 78t-127 86t-115.5 98q-118 116 -118 266z" />
<glyph unicode="T" horiz-adv-x="1146" d="M2 1206q2 -37 14 -88h47q7 47 56.5 78t122.5 31h180q10 -48 10 -127q0 -964 -4 -1100h309q-24 51 -24 504t12 723h180q73 0 122.5 -31t55.5 -78h47q15 63 15 109q0 29 -6 51q-15 57 -47 96l-312 -14h-413l-312 14q-54 -65 -54 -148q0 -10 1 -20z" />
<glyph unicode="U" horiz-adv-x="1480" d="M147 1317l17 43l24 7q79 22 170 22t146 -27q-21 -410 -21 -875q0 -261 203 -335q56 -21 128.5 -21t147 32.5t124.5 97t51 145.5l6 692v9q0 77 -17 121q-18 48 -51 89l19 43q15 10 60 19.5t91 9.5t78 -25q-25 -567 -25 -907q0 -241 -166 -365q-160 -119 -413 -119 q-205 0 -356 117q-74 58 -118 154t-44 217l2 639q0 148 -40 196q-8 9 -16 21z" />
<glyph unicode="V" horiz-adv-x="1306" d="M10 1317q16 -4 45 -45q56 -78 111 -248l317 -887q40 -132 181 -162l129 -26l55 188l393 944q22 54 42.5 139t23.5 140q-59 29 -122 29t-136 -29l-13 -33q45 -48 45 -103.5t-30.5 -154.5t-150 -398t-155.5 -446q-63 156 -194 543t-170 575q-51 46 -159 46t-193 -29z" />
<glyph unicode="W" horiz-adv-x="1980" d="M10 1317q16 -4 45 -45q56 -78 105 -225t148.5 -452.5t154.5 -457.5q13 -48 56.5 -96.5t123.5 -65.5l129 -26l55 188l189 545q106 -332 182 -545q13 -48 56.5 -96.5t123.5 -65.5l129 -26l56 188l346 944q21 54 41.5 141.5t23.5 141.5q-72 25 -124.5 25t-127.5 -29l-12 -33 q45 -48 45 -103.5t-25 -137.5t-90 -273q-132 -391 -180 -588q-51 126 -177.5 525.5t-166.5 592.5q-51 46 -159 46t-193 -29l-19 -43q16 -4 45 -45q56 -78 111 -248l35 -104q-41 -127 -77 -237q-94 -286 -134 -458q-52 128 -178.5 526.5t-165.5 591.5q-51 46 -159 46 t-193 -29z" />
<glyph unicode="X" horiz-adv-x="1130" d="M12 0l72 100l371 541l-211 379q-23 42 -52 95t-40.5 73.5t-28 47.5t-27.5 38q-27 29 -57 43l18 43q84 29 193.5 29t155.5 -46q11 -25 32.5 -74.5t35.5 -77.5q52 -104 175 -323q9 26 19 41l114 172q68 101 68 154.5t-27 83.5l19 41q60 29 132 29t132 -29 q-17 -108 -145 -293l-242 -350l311 -570q24 -43 68 -95l43 -52h-344l-262 494l-37 -64l-213 -319q-19 -36 -32 -73l-13 -38h-228z" />
<glyph unicode="Y" horiz-adv-x="1103" d="M0 1317l18 43q68 33 188 33t159 -50q37 -103 138.5 -303.5t135.5 -261.5l9 28q10 28 24 52l153 277q27 48 27 92t-29 90l19 43q62 24 125 24t123 -36q0 -36 -37 -129t-74 -152l-254 -401l-2 -314q0 -245 16 -352h-295v33l2 350q0 199 -2 233q-13 14 -43 64l-196 344 q-27 49 -57.5 106t-43 80t-30.5 49q-28 41 -74 58z" />
<glyph unicode="Z" horiz-adv-x="1181" d="M10 53l56 68l641 1032l59 66h-459q-72 0 -121 -31t-55 -78h-49q-17 56 -17 102q-1 32 7 58q18 66 49 104l311 -14h715l8 -47l-21 -27q-22 -28 -36 -51l-637 -1014l-58 -67h508q73 0 121.5 30.5t54.5 77.5h50q15 -41 15 -91q0 -19 -2 -41q-8 -76 -52 -130h-1084z" />
<glyph unicode="[" horiz-adv-x="507" d="M-6 -141v1624h422v-119h-191v-1387h191v-118h-422z" />
<glyph unicode="\" horiz-adv-x="657" d="M14 1346q0 -24 14 -68.5t45.5 -161t177 -756t187.5 -858.5h201q-178 707 -285.5 1218t-107.5 623q-13 21 -55.5 45.5t-79.5 24.5q-97 0 -97 -67z" />
<glyph unicode="]" horiz-adv-x="509" d="M39 -23v-118h422v1624h-422v-119h190v-1387h-190z" />
<glyph unicode="^" horiz-adv-x="1277" d="M102 645l445 815h180l447 -815h-222l-313 592l-320 -592h-217z" />
<glyph unicode="_" horiz-adv-x="966" d="M0 -143h1042l-79 -144h-963v144z" />
<glyph unicode="`" horiz-adv-x="692" d="M78 1503l90 -155q118 -191 311 -191q35 0 76 18.5t41 26.5q-91 30 -151 125q-12 19 -30 52t-30 50t-31 37q-37 37 -108 37h-168z" />
<glyph unicode="a" d="M55 237.5q0 103.5 61 176.5q121 147 371 147q63 0 125 -16q4 86 4 137t-5.5 95.5t-20.5 84.5q-31 82 -121 82q-67 0 -103 -47q-26 -34 -26 -79q0 -17 4 -36q-54 -43 -109 -43t-89.5 30t-34.5 79q0 95 109 156t273.5 61t272.5 -82t108 -238l-4 -303q0 -243 25 -295 q35 -67 143 -67v-45q-38 -24 -106 -43t-128.5 -19t-110 50t-56.5 100q-36 -71 -114.5 -110.5t-155.5 -39.5q-152 0 -232 80.5t-80 184zM299 273.5q0 -56.5 42 -98.5t97 -42q96 0 178 60q-4 92 -4 278q-222 -13 -288 -107q-25 -34 -25 -90.5z" />
<glyph unicode="b" horiz-adv-x="1157" d="M76 1458v37l28 15q28 16 79 31t98 15q95 0 133.5 -48t38.5 -146q-5 -104 -8 -173t-6 -113q-5 -80 -15 -107q45 40 111.5 68t137.5 28t144.5 -33t133 -95.5t95 -165t35.5 -208.5t-20.5 -187.5t-63.5 -154.5t-103 -128q-132 -120 -333 -120q-126 0 -223 37.5t-127 102.5 q-37 73 -37 184q0 366 5 810l1 118q0 93 -30 157t-74 76zM428 481q0 -218 27 -294q36 -101 129 -101q64 0 111.5 39t71.5 101q46 120 46 253q0 194 -71.5 312t-186.5 118q-70 0 -123 -37z" />
<glyph unicode="c" horiz-adv-x="985" d="M76 491.5q0 143.5 66 279t183.5 215t261.5 79.5t243.5 -53t99.5 -142q0 -54 -39 -90.5t-92 -36.5t-92 45q-2 57 -39 96.5t-105.5 39.5t-122.5 -56q-110 -116 -110 -327q0 -216 128 -329q65 -58 150 -58q212 0 334 184q12 -38 12 -72q0 -82 -58.5 -149.5t-157.5 -105.5 t-204.5 -38t-185 30t-141 90t-96.5 157.5t-35 241z" />
<glyph unicode="d" horiz-adv-x="1167" d="M76 465q0 178 84 329q94 169 246 234q85 35 154 35t125 -11.5t56 -15.5q0 226 -9.5 276.5t-20.5 75.5q-22 52 -76 70v37l28 15q28 16 79 31t97 15t75 -8t52 -31q46 -45 46 -180v-26q0 -18 -5 -136q-16 -378 -16 -535.5t1 -212t4 -109t8 -85.5t14.5 -61.5t21.5 -44.5 t32 -26q30 -19 97 -21v-45q-121 -62 -225 -62q-48 0 -99 29.5t-75 83.5q-133 -113 -276 -113q-167 0 -288 113q-130 121 -130 379zM344 505q0 -165 71 -274.5t185 -109.5q81 0 133 37l2 235v510q-110 27 -168.5 27t-105.5 -39t-71 -101q-46 -120 -46 -285z" />
<glyph unicode="e" d="M76 465q0 165 56.5 299t163 212.5t243.5 78.5q222 0 323 -141q53 -75 66 -144q16 -90 16 -152v-47q-63 -28 -156 -28l-454 6q2 -23 2 -76q4 -149 89.5 -234t182.5 -85q226 0 353 188q9 -36 9 -69q0 -142 -171 -235q-121 -65 -271 -65q-185 0 -312 115q-138 123 -140 377z M336 645l362 12q-2 103 -32 164q-53 109 -140 109q-82 0 -127 -86q-40 -77 -63 -199z" />
<glyph unicode="f" horiz-adv-x="698" d="M72 969l10 61q40 4 74.5 32t42 104.5t36 152t67 121.5t88.5 76q88 53 196 53t176.5 -48.5t68.5 -106t-34.5 -88t-78.5 -30.5t-81 27q1 5 1 11q0 30 -20 56q-24 29 -83 29q-119 0 -119 -168l2 -41l10 -139q0 -24 -2 -37h178q91 0 109 33q6 -21 6 -49q0 -123 -176 -123 l-113 6v-121q0 -625 35 -780h-287q10 195 10 664q0 199 -19 226q-40 59 -97 79z" />
<glyph unicode="g" horiz-adv-x="1093" d="M61 -286.5q0 67.5 41.5 100t105 32.5t116.5 -59q-9 -25 -9 -55q0 -68 64 -109t161 -41t183 52.5t86 134.5q0 42 -22 59.5t-42 25.5t-43.5 12t-50 7t-54.5 3.5t-69.5 2.5t-83.5 6t-91.5 13t-85 24t-65.5 37q-63 45 -63 133q0 134 156 205q-81 48 -137 135t-56 200.5 t55.5 212.5t158 159.5t234 60.5t220.5 -72l41 41h160q77 0 104 41q17 -44 17 -83t-36.5 -66t-88 -27t-83.5 14.5t-40 10.5q123 -119 123 -267q0 -99 -37 -180t-99 -132q-130 -107 -307 -107q-82 0 -168 24q-32 -43 -32 -73.5t24.5 -47.5t66 -23t95.5 -8t113.5 -4t119 -7.5 t113.5 -22.5t96 -44q90 -60 90 -182t-78.5 -204t-196 -123t-243.5 -41t-228 26t-168.5 82t-66.5 123.5zM365 686q0 -147 51 -250.5t141 -103.5q64 0 108 66t44 173q0 174 -51.5 277.5t-143.5 103.5q-46 0 -82 -41q-67 -78 -67 -225z" />
<glyph unicode="h" horiz-adv-x="1230" d="M82 1458v37l28 15q83 46 180 46t133 -50t36 -127.5t-8.5 -234.5t-10.5 -263q174 184 342 184q125 0 205 -78.5t80 -191.5l-2 -387q0 -236 22 -408h-278l-3 22q-3 22 -3 44l4 530q0 149 -25.5 213.5t-101.5 64.5q-129 0 -240 -100v-436q0 -184 23 -338h-287 q7 335 7.5 779.5t2.5 445.5q0 101 -32.5 161.5t-71.5 71.5z" />
<glyph unicode="i" horiz-adv-x="614" d="M90 946v37q117 72 221 72q148 0 148 -195l-10 -213v-201q0 -286 22 -446h-287l11 698q0 165 -67 226q-24 22 -38 22zM160 1318.5q0 58.5 42 100t99.5 41.5t98 -41.5t40.5 -100t-40.5 -98.5t-98 -40t-99.5 40t-42 98.5z" />
<glyph unicode="j" horiz-adv-x="612" d="M-43 -453q44 -57 108 -57t132.5 31.5t125 90.5t91.5 153.5t35 209.5v713q1 18 3.5 56t3.5 62q1 14 1 33v27q-1 36 -5 59.5t-15 50.5t-28 42q-40 37 -99 37t-112.5 -18t-81.5 -36l-28 -18v-37q44 -15 74.5 -74t30.5 -151v-750q0 -93 -31 -190t-87 -165t-118 -69z M158 1318.5q0 58.5 42 100t99.5 41.5t98 -41.5t40.5 -100t-40.5 -98.5t-98 -40t-99.5 40t-42 98.5z" />
<glyph unicode="k" horiz-adv-x="1187" d="M88 1458v37l28 15q83 46 180 46t133 -50t36 -154q0 -37 -9.5 -326.5t-9.5 -454.5l334 275q59 46 62 86q0 19 -25 35v37q22 15 77 33t97 18t67 -17t25 -50t-21.5 -68t-53.5 -62q-73 -60 -146 -104l-205 -138q15 -18 63.5 -88t102 -141t117.5 -146q145 -170 258 -184v-37 q-82 -47 -199.5 -47t-189.5 49.5t-123 128t-98 153.5t-70 112q-56 88 -71 88h-1q0 -345 23 -504h-287l11 1225v6q0 96 -32 155q-33 61 -73 72z" />
<glyph unicode="l" horiz-adv-x="612" d="M88 1458v37l28 15q83 46 180 46t133 -50t36 -133.5t-9.5 -233.5t-9.5 -384v-418q0 -183 23 -337h-287q6 314 6 582l5 643q0 101 -32.5 161.5t-72.5 71.5z" />
<glyph unicode="m" horiz-adv-x="1843" d="M82 946v37q117 72 221 72q59 0 94 -32.5t45 -82.5l-2 -57q177 182 342 182q102 0 173.5 -53t97.5 -138q53 70 149 130.5t207 60.5t189 -78t81 -192q-2 -138 -2 -255q0 -365 23 -540h-279l-3 22q-3 22 -3 44l4 530v20q-1 130 -25 192q-26 66 -98 66q-132 0 -229 -88 q-3 -170 -3 -336v-82q1 -206 23 -368h-278l-3 22q-3 22 -3 44l4 530v20q0 132 -25 192q-27 66 -102 66q-129 0 -240 -100q0 -487 7 -604t16 -170h-287l2 63l8 635v9q0 73 -16 125q-25 87 -72 106z" />
<glyph unicode="n" horiz-adv-x="1230" d="M82 946v37q117 72 221 72q60 0 96 -34.5t43 -82.5l-2 -57q134 134 238 167q51 17 104 17q125 0 203.5 -78t81.5 -192q-3 -173 -3 -341v-84q1 -208 23 -370h-278l-3 22q-3 22 -3 44l4 530v20q0 132 -25 192q-27 66 -102 66q-129 0 -240 -100q0 -487 7 -604t16 -170h-287 l2 63l8 635v9q0 73 -16 125q-25 87 -72 106z" />
<glyph unicode="o" horiz-adv-x="1159" d="M76 495q0 -164 84 -313q120 -209 385 -209q154 0 278.5 79.5t192 208.5t67.5 267t-38.5 240t-104.5 166q-135 131 -326 131q-154 0 -277.5 -74.5t-192 -203t-68.5 -292.5zM354 548.5q0 95.5 11 155.5t32.5 114.5t59 89t84.5 34.5q108 0 185 -136t77 -316t-59 -289 t-136 -109t-134 67t-88.5 180.5t-31.5 209z" />
<glyph unicode="p" horiz-adv-x="1183" d="M88 946v37l28 18q29 18 83 36t116 18t98 -32q33 -30 33 -67v-6q46 46 112 80.5t138.5 34.5t146.5 -33t134 -95.5t95.5 -165t35.5 -208.5t-20.5 -187.5t-63.5 -154.5t-104 -128q-132 -120 -332 -120q-55 0 -142 19q0 -346 23 -484h-287l4 252v215q0 255 4 503l3 249 q-2 86 -31 145t-74 74zM446 231l3 -114q79 -21 146.5 -21t109 26.5t66 66.5t40.5 94q27 91 27 202q0 189 -71.5 301.5t-184.5 112.5q-71 0 -129 -29q-7 -294 -7 -639z" />
<glyph unicode="q" horiz-adv-x="1175" d="M76 465q0 176 84 323q147 256 434 256q40 0 192.5 -17t233.5 -17l2 -90v-74l-16 -619q0 -435 5 -555.5t11 -156.5h-277v227l3 229v84q-113 -82 -254 -82q-167 0 -288 113q-130 121 -130 379zM344 500q0 -178 71 -275.5t185 -97.5q74 0 148 51l-5 584q0 54 -10 131 q-82 20 -149.5 20t-109.5 -29t-66 -72.5t-39 -101.5q-25 -98 -25 -210z" />
<glyph unicode="r" horiz-adv-x="868" d="M86 946v37q112 72 219 72q129 0 129 -123q0 -3 -5 -39.5t-7 -56.5q30 72 113 150.5t169.5 78.5t128 -42.5t41.5 -98t-37 -94.5t-96 -39l-22 2q-16 81 -94 81q-171 0 -189 -274q-4 -52 -4 -121q0 -306 27 -479h-279l10 698q0 178 -76 234q-13 10 -28 14z" />
<glyph unicode="s" horiz-adv-x="874" d="M78 737q0 150 106.5 239t276 89t297.5 -78q10 -36 10 -70q0 -33 -10 -65q-20 -64 -53 -98l-37 8q-44 135 -178 170q-34 8 -81 8t-97 -28t-50 -91t110 -119q50 -25 109 -51.5t118.5 -58.5t108.5 -70q111 -83 111 -209q0 -160 -113 -250t-271.5 -90t-255.5 73.5t-97 168.5 q0 46 22 80q7 -71 105 -128.5t188.5 -57.5t147.5 29.5t57 92.5q0 69 -136 130q-145 65 -252 137q-58 39 -97 101.5t-39 137.5z" />
<glyph unicode="t" horiz-adv-x="794" d="M70 969l10 61q22 0 62 18q84 39 151 156h164l-23 -170h191q91 0 108 33q6 -21 6 -49q0 -123 -176 -123l-135 6v-461q-1 -31 -1 -57q-1 -81 9 -113q12 -42 26 -64q30 -49 105 -49q50 0 119 21q67 21 84 55q11 -26 11 -52q0 -37 -22 -73q-37 -62 -115.5 -98.5t-170.5 -36.5 t-153.5 22t-93.5 68q-56 81 -56 246l20 445q0 118 -18 141q-41 52 -102 74z" />
<glyph unicode="u" horiz-adv-x="1218" d="M66 946v37q41 27 100 49.5t108 22.5t81.5 -15t48.5 -44q26 -51 26 -140l-8 -403q0 -189 32 -247q31 -59 99 -59q155 0 240 97l4 442q0 227 -105 260v37q30 23 92 47.5t112 24.5t83.5 -15t49.5 -44q28 -51 28 -130l-4 -551q0 -165 45 -200q39 -35 116 -35v-45 q-21 -16 -92 -39t-121 -23t-85 18t-56 47q-41 57 -47 118q-59 -78 -156 -130.5t-213 -52.5t-194 75t-80 175l2 395q0 164 -31 250q-9 28 -27 48q-17 17 -48 30z" />
<glyph unicode="v" horiz-adv-x="999" d="M0 989q36 26 89 46t119 20t106.5 -41t64.5 -131q20 -116 160 -508q1 -3 21 -50t22 -53l8 42q8 43 18 71l140 369q28 79 28 128.5t-35 69.5v37q29 27 76.5 46.5t89.5 19.5q76 0 76 -76q0 -53 -51 -180l-291 -684l-49 -170l-72 20q-75 14 -116 61.5t-50 88.5l-178 569 q-58 186 -152 255q-15 11 -22 13z" />
<glyph unicode="w" horiz-adv-x="1681" d="M0 989q36 26 89 46t119 20t106.5 -41t64.5 -131q20 -116 160 -508q1 -3 21 -50t22 -53l8 42q8 43 18 71l144 369q14 33 26 96q-30 56 -49 71.5t-25 20.5l-20 10l-2 37q36 26 89 46t119 20t106.5 -41t64.5 -131q20 -116 160 -508q30 -76 43 -103q0 38 26 113l140 369 q28 79 28 128.5t-35 69.5v37q29 27 76.5 46.5t89.5 19.5q76 0 76 -76q0 -53 -51 -180l-291 -684l-49 -170l-72 20q-75 14 -116 61t-50 89l-170 544l-225 -544l-49 -170l-72 20q-75 14 -116 61.5t-50 88.5l-178 569q-58 186 -152 255q-15 11 -22 13z" />
<glyph unicode="x" horiz-adv-x="985" d="M0 0l393 479l-135 203q-17 27 -50.5 84t-53 86.5t-52.5 60t-69 39.5v37q92 66 153.5 66t95 -9.5t55.5 -31.5t34 -42t31 -57t34 -61l94 -149l23 -52l11 20q11 20 22 32l94 110q43 55 43 88t-23 49v37q29 27 76.5 46.5t89.5 19.5q72 0 72 -76q0 -65 -28.5 -110t-63.5 -83 q-92 -101 -219 -227q262 -408 379 -559h-322l-39 80l2 -2q-116 174 -182 291q-5 -7 -16.5 -30t-35 -54t-59.5 -78q-87 -114 -131 -207h-223z" />
<glyph unicode="y" horiz-adv-x="1007" d="M6 -305q20 -25 64.5 -41t105 -16t114 28.5t75.5 81.5l96 211l24 43l-24 10q-24 9 -53.5 37.5t-40.5 65.5l-179 569q-49 163 -129 236q-31 29 -45 32l-2 37q36 26 89.5 46t119.5 20t106 -41t64 -131q20 -116 160 -508q44 -88 49 -103l10 42q10 43 21 71l129 369 q28 79 28 128.5t-34 69.5l-4 37q28 27 75.5 46.5t89.5 19.5q72 0 72 -76q0 -53 -51 -180l-408 -1004q-75 -185 -124 -239q-68 -74 -120.5 -89.5t-101.5 -15.5q-92 0 -144 70q-38 50 -38 117q0 27 6 57z" />
<glyph unicode="z" horiz-adv-x="989" d="M31 53l19 20q20 20 34 42l465 731q25 38 47 49h-281q-89 0 -148.5 -31t-66.5 -78h-45q-9 13 -13 60q-1 15 -1 30q0 36 7 78q10 60 40 93l289 -13h551l8 -45l-22 -21q-23 -21 -40 -48l-450 -727q-10 -17 -30 -37l-21 -19h311q90 0 149.5 31t65.5 78h45q9 -13 13 -56 q1 -13 2 -27q1 -33 -7 -73q-10 -57 -41 -90h-872z" />
<glyph unicode="{" horiz-adv-x="681" d="M2 578v45q154 0 154 579q0 86 30 155t78 109q99 84 207 84q39 0 90.5 -13t75.5 -34q-117 -1 -178.5 -84t-61.5 -229.5t-18 -264t-45 -188.5q-57 -147 -113 -153q26 -16 45.5 -37.5t42.5 -72t43 -122.5q45 -166 45 -469q-1 -29 0 -58t1.5 -56.5t5.5 -52.5t12.5 -46.5 t22 -39t33.5 -30.5q42 -26 114 -26q13 0 51 4q-31 -37 -95.5 -58.5t-119.5 -21.5q-105 0 -185.5 79t-80.5 212q0 614 -96 748q-25 34 -58 41z" />
<glyph unicode="|" horiz-adv-x="212" d="M0 -520v2068h213v-2068h-213z" />
<glyph unicode="}" horiz-adv-x="681" d="M45 -422q31 -37 95.5 -58.5t119.5 -21.5q105 0 185.5 79t80.5 212q0 614 96 748q25 34 58 41v45q-154 0 -154 579q0 86 -30 155t-78 109q-99 84 -207 84q-39 0 -90.5 -13t-75.5 -34q117 -1 178.5 -84t61.5 -229.5t18 -264t45 -188.5q57 -147 113 -153 q-26 -16 -45.5 -37.5t-42.5 -72t-43 -122.5q-45 -166 -45 -469q1 -29 0 -58t-1.5 -56.5t-5.5 -52.5t-12.5 -46.5t-22 -39t-33.5 -30.5q-42 -26 -114 -26q-15 0 -51 4z" />
<glyph unicode="~" horiz-adv-x="1079" d="M170 520q70 51 112.5 51t155 -34.5t196.5 -34.5t164.5 56.5t98.5 139.5q-83 -55 -133.5 -55t-168 35t-188 35t-146.5 -55.5t-91 -137.5z" />
<glyph horiz-adv-x="1024" />
<glyph unicode="&#xa1;" horiz-adv-x="540" d="M80 -61q0 56 22 180q47 271 90 729l15 158h100l94 -967q8 -106 50 -148v-38q-89 -60 -181 -60q-190 0 -190 146zM127 1247.5q0 58.5 40.5 98.5t98 40t100 -40t42.5 -98.5t-42.5 -100t-100 -41.5t-98 41.5t-40.5 100z" />
<glyph unicode="&#xa2;" horiz-adv-x="985" d="M76 475q0 235 134.5 403.5t342.5 184.5q-2 45 -10 182q45 10 78 10q59 0 52 -87q-3 -38 -3 -83l-2 -26q118 -16 181.5 -74t63.5 -127q0 -9 -4 -39q-128 88 -243 101q-6 -604 -4 -764q177 20 286 182q13 -41 13 -72q0 -99 -83.5 -174.5t-215.5 -103.5q3 -177 10 -211h-121 v196h-23q-183 0 -313 120q-64 59 -101.5 157.5t-37.5 224.5zM336 554q0 -146 57.5 -254t157.5 -138l2 749q-99 -24 -158 -117.5t-59 -239.5z" />
<glyph unicode="&#xa3;" horiz-adv-x="1177" d="M31 526l14 164q5 2 12 3t13 2t20 1h92v66q0 272 56 420q57 148 178 248q152 124 387 124q166 0 269 -88q54 -46 54 -112.5t-50.5 -104t-111 -37.5t-116.5 50q4 8 4 46t-40 73.5t-105 35.5q-93 0 -162.5 -94t-81.5 -223q-8 -82 -12 -210.5t-7 -197.5q50 -2 113 -2h39 q73 0 110 2q105 8 187 68q-22 -128 -107 -178q-66 -39 -182 -35q-32 1 -65 0h-101q-6 -156 -47.5 -363t-85.5 -284q210 -39 368.5 -39t304.5 46t228 134q21 -95 21 -121q0 -229 -451 -229q-138 0 -628 77q-77 12 -111 17q59 124 96 338.5t47 425.5h-49q-54 0 -100 -23z" />
<glyph unicode="&#xa4;" horiz-adv-x="1183" d="M14 438l25 162q48 -10 102 -10q-2 0 -2 47.5t4 95.5h-51q-39 0 -78 -8l25 162q63 -10 131 -10q59 236 240.5 376t437.5 140q166 0 247 -43.5t81 -107t-50 -122.5q-12 57 -97.5 93t-221.5 36t-245.5 -106t-149.5 -269h454q112 0 199 33q-16 -90 -68 -129q-51 -39 -102 -42 q-90 -7 -162 -5h-338q0 -75 8 -143h355q120 0 194 33q-18 -93 -70 -131q-50 -37 -103 -41q-92 -7 -169 -5h-178q97 -333 418 -333q169 0 313 153v-18q0 -131 -101.5 -203t-275.5 -72q-253 0 -412.5 126.5t-209.5 348.5h-68q-48 0 -82 -8z" />
<glyph unicode="&#xa5;" horiz-adv-x="1103" d="M0 1317l18 43q68 33 188 33t159 -50q37 -103 138.5 -303.5t135.5 -261.5l9 28q10 28 24 52l153 277q27 48 27 92t-29 90l19 43q62 24 125 24t123 -36q0 -40 -36 -135t-75 -146l-260 -340q250 0 272 16q-32 -107 -94 -141q-63 -33 -116 -31.5t-91 -1.5q-12 -90 -12 -163 h138q155 0 175 16q-14 -65 -48 -104t-77 -50q-89 -24 -188 -20q0 -154 18 -248h-264q1 52 4 136l4 112l-202 2q-29 0 -37 -2v166q0 -8 241 -8v26q0 94 -2 137l-202 2q-29 0 -37 -2v166q0 -4 192 -8l-168 297q-103 179 -127 212q-43 61 -98 81z" />
<glyph unicode="&#xa7;" horiz-adv-x="860" d="M102 -311l4 37q58 -52 135.5 -83t145.5 -30h19q10 102 -1.5 175.5t-20.5 118t-21 95t-27 108.5t-33 124q-33 123 -86 309q-102 364 -102 553t121 315.5t276 126.5q218 0 298 -137q18 -32 17 -58l-4 -36q-57 51 -134.5 82t-145.5 30h-21q-1 -11 -1 -84t10.5 -129.5t13 -77 t23 -102t25 -101.5t35.5 -131.5t38 -136.5t47 -168q102 -368 102 -571q0 -84 -33.5 -163t-88.5 -135t-127.5 -90t-149.5 -34t-141 21t-99 52q-74 64 -74 120zM281 1081q0 -76 23.5 -184t73 -304t63.5 -254t34.5 -154t27 -157t11.5 -137q8 -136 -31 -260q169 62 166 320 q0 97 -33.5 233.5t-80 319t-66.5 273.5t-40 217q-37 236 15 407q-166 -63 -163 -320z" />
<glyph unicode="&#xa8;" horiz-adv-x="786" d="M94 1325q0 52 34 89.5t80.5 37.5t81 -37.5t34.5 -89.5t-34.5 -88.5t-81 -36.5t-80.5 36.5t-34 88.5zM471 1325.5q0 52.5 33.5 89.5t80.5 37t81 -37.5t34 -89.5t-34 -88.5t-81 -36.5t-80.5 36.5t-33.5 89z" />
<glyph unicode="&#xa9;" horiz-adv-x="1617" d="M100 633q0 216 90.5 384t264 264.5t405.5 96.5q299 0 482.5 -181.5t183.5 -469.5q0 -217 -89.5 -388t-261 -269.5t-399.5 -98.5q-306 0 -491 185.5t-185 476.5zM262 654q0 -144 75.5 -275t203 -203t257 -72t227.5 42.5t172.5 116.5t118.5 183t44 234t-41.5 232 t-114.5 180q-154 157 -387 157q-109 0 -209.5 -42.5t-177 -116.5t-122.5 -183t-46 -253zM446 643q0 115 48.5 212t141.5 156.5t213 59.5t189.5 -48.5t69.5 -129.5q0 -13 -4 -37q-90 70 -193.5 70t-164 -58.5t-60.5 -170.5t47 -179t133 -67q149 0 254 145q19 -34 19 -80 q0 -94 -97.5 -158.5t-226.5 -64.5q-150 0 -255 81q-114 88 -114 269z" />
<glyph unicode="&#xaa;" horiz-adv-x="858" />
<glyph unicode="&#xab;" horiz-adv-x="1302" d="M61 506l16 14q16 14 27 27l269 319q56 66 110.5 99.5t100 33.5t84 -13.5t55.5 -29.5q-38 -12 -91 -66l-18 -18l-221 -303q-15 -22 -42.5 -42.5t-31.5 -20.5q5 0 32 -21t42 -43l221 -303l42 -37q41 -38 67 -47q-50 -39 -145 -39q-40 0 -96 33t-109 96l-269 320zM573 506 l16 14q16 14 27 27l269 319q56 66 110.5 99.5t100 33.5t84 -13.5t55.5 -29.5q-37 -12 -91 -66l-18 -18l-221 -303q-15 -22 -42.5 -42.5t-31.5 -20.5q5 0 32 -21t42 -43l221 -303l42 -37q41 -38 67 -47q-50 -39 -145 -39q-40 0 -96 33t-109 96l-269 320z" />
<glyph unicode="&#xac;" horiz-adv-x="1095" />
<glyph unicode="&#xad;" horiz-adv-x="632" d="M39 422v162q0 -9 259 -9t288 21q-6 -69 -26.5 -94t-35 -38t-39 -21t-43 -13t-50.5 -7q-48 -3 -109 -3l-205 4q-31 0 -39 -2z" />
<glyph unicode="&#xae;" horiz-adv-x="1617" d="M100 633q0 216 90.5 384t264 264.5t405.5 96.5q299 0 482.5 -181.5t183.5 -469.5q0 -217 -89.5 -388t-261 -269.5t-399.5 -98.5q-306 0 -491 185.5t-185 476.5zM262 654q0 -144 75.5 -275t203 -203t257 -72t227.5 42.5t172.5 116.5t118.5 183t44 234t-41.5 232 t-114.5 180q-154 157 -387 157q-109 0 -209.5 -42.5t-177 -116.5t-122.5 -183t-46 -253zM524 948v49q100 56 165 56t91 -32t37 -71q28 41 86 76t108 35t89 -30.5t39 -73.5t-32.5 -77.5t-96.5 -41.5q-12 61 -72 61q-75 0 -98 -93q-21 -79 -21 -186q0 -209 68 -315h-295 q1 24 7 108q13 182 13 269t-8.5 141.5t-24.5 78.5q-25 38 -55 46z" />
<glyph unicode="&#xaf;" horiz-adv-x="686" d="M80 1204v162q0 -8 258 -8t289 20q-6 -69 -26.5 -94t-35 -38t-39 -21t-43 -13t-50.5 -7q-48 -3 -109 -3l-205 4q-31 0 -39 -2z" />
<glyph unicode="&#xb0;" horiz-adv-x="817" d="M35 1175q0 149 107 253t257 104t255.5 -104t105.5 -253t-105.5 -252.5t-256 -103.5t-257 103.5t-106.5 252.5zM193 1177q0 -86 60 -148t145.5 -62t144.5 61.5t59 148t-59 147t-144.5 60.5t-145.5 -60.5t-60 -146.5z" />
<glyph unicode="&#xb1;" horiz-adv-x="915" />
<glyph unicode="&#xb4;" horiz-adv-x="692" d="M98 1202q92 30 152 125q12 19 32.5 57t36.5 60q43 59 130 59h167l-90 -155q-117 -191 -311 -191q-35 0 -76 18.5t-41 26.5z" />
<glyph unicode="&#xb6;" horiz-adv-x="1273" d="M117 766.5q0 155.5 71.5 291.5t194 215t266.5 79h170.5t143 0.5t105 2t76.5 4.5q62 6 81 19q-11 -68 -54 -119.5t-98 -58.5v-37q-7 -286 -8.5 -616t2.5 -686.5t6 -356.5h-131q8 1038 8 1253t-10 437h-92q3 8 -3.5 -175.5t-6.5 -492.5t4 -665.5t6 -356.5h-131q4 452 4 553 t4 127q-59 -22 -129 -22q-131 0 -242.5 86.5t-174 224.5t-62.5 293.5z" />
<glyph unicode="&#xb7;" horiz-adv-x="528" d="M117 497q0 58 42 100t99.5 42t98 -42t40.5 -100t-40.5 -98.5t-98 -40.5t-99.5 40.5t-42 98.5z" />
<glyph unicode="&#xb8;" horiz-adv-x="823" d="M178 -375.5q0 41.5 17 70.5q58 -60 163 -60q36 0 68.5 16t32.5 38.5t-31 38.5t-68.5 29t-68.5 43.5t-31 65.5q0 70 111 130l65 2q-18 -35 -18 -53t14.5 -27t36.5 -14t48 -15.5t48 -25.5q51 -35 51 -122t-71 -160t-171.5 -73t-148 37.5t-47.5 79z" />
<glyph unicode="&#xb9;" horiz-adv-x="526" />
<glyph unicode="&#xba;" horiz-adv-x="843" />
<glyph unicode="&#xbb;" horiz-adv-x="1316" d="M63 55q53 -39 146 -39q39 0 95.5 33t109.5 96l268 320l43 41l-16 14q-16 14 -27 27l-268 319q-55 65 -110 99t-100 34q-93 0 -141 -43q37 -12 91 -66l18 -18l221 -303q16 -22 43 -42.5t31 -20.5q-4 0 -31 -21t-43 -43l-221 -303l-42 -37q-41 -38 -67 -47zM575 55 q53 -39 146 -39q39 0 95.5 33t109.5 96l268 320l43 41l-16 14q-16 14 -27 27l-268 319q-55 65 -110 99t-100 34q-93 0 -141 -43q37 -12 91 -66l18 -18l221 -303q16 -22 43 -42.5t31 -20.5q-4 0 -31 -21t-43 -43l-221 -303l-42 -37q-41 -38 -67 -47z" />
<glyph unicode="&#xbc;" horiz-adv-x="1267" />
<glyph unicode="&#xbd;" horiz-adv-x="1267" />
<glyph unicode="&#xbf;" horiz-adv-x="849" d="M47 147q0 145 94 281q76 109 159.5 190t125.5 122.5t68 78.5t26 75t-28 77l53 35q150 -68 153 -201q2 -114 -78 -218q-40 -51 -124 -139t-120 -134q-81 -102 -81 -214q0 -68 42 -124t128 -56q51 0 99 36.5t48 100.5q0 24 -8 58q42 53 102.5 53t101 -35.5t40.5 -89.5 q0 -114 -110.5 -182t-272.5 -68q-204 0 -313 107q-105 103 -105 247zM397 1248q0 58 41 98t98 40t99.5 -40t42.5 -98t-42.5 -100t-99.5 -42t-98 42t-41 100z" />
<glyph unicode="&#xc0;" horiz-adv-x="1263" d="M-10 0l461 1182q26 101 113.5 155.5t219.5 63.5q20 -104 47 -180l365 -1045q40 -115 78 -176h-328l-4 33q-4 33 -16 67l-121 344h-469l-146 -411l-6 -33h-194zM287 1751l94 -115q69 -85 137.5 -124t168.5 -39t138 49q-85 26 -139 86q-17 19 -40 48.5t-33 40.5t-31 27 q-36 27 -107 27h-188zM383 580h373l-185 526z" />
<glyph unicode="&#xc1;" horiz-adv-x="1263" d="M-10 0l461 1182q26 101 113.5 155.5t219.5 63.5q20 -104 47 -180l365 -1045q40 -115 78 -176h-328l-4 33q-4 33 -16 67l-121 344h-469l-146 -411l-6 -33h-194zM383 580h373l-185 526zM516 1522q85 26 138 86q18 19 41 48.5t33 40.5t30 27q37 27 108 27h189l-94 -115 q-46 -56 -84 -88q-89 -75 -238 -75q-83 0 -123 49z" />
<glyph unicode="&#xc2;" horiz-adv-x="1263" d="M-10 0l461 1182q26 101 113.5 155.5t219.5 63.5q20 -104 47 -180l365 -1045q40 -115 78 -176h-328l-4 33q-4 33 -16 67l-121 344h-469l-146 -411l-6 -33h-194zM227 1497q39 6 82 33t66.5 49.5t63 61.5t57.5 55q53 47 108 47h58q67 0 176 -109q118 -121 200 -137 q0 -9 -43.5 -25t-83.5 -16q-98 0 -169 41t-109 107q-44 -71 -106.5 -109.5t-172.5 -38.5q-39 0 -83 16t-44 25zM383 580h373l-185 526z" />
<glyph unicode="&#xc3;" horiz-adv-x="1263" d="M-10 0l461 1182q26 101 113.5 155.5t219.5 63.5q20 -104 47 -180l365 -1045q40 -115 78 -176h-328l-4 33q-4 33 -16 67l-121 344h-469l-146 -411l-6 -33h-194zM215 1513q12 7 24 15t27.5 15.5t30.5 13.5q35 14 74.5 14t102.5 -19q191 -59 301 -59t200.5 60t114.5 153 q-101 -59 -168 -59t-204 37.5t-225.5 37.5t-173 -58.5t-104.5 -150.5zM383 580h373l-185 526z" />
<glyph unicode="&#xc4;" horiz-adv-x="1263" d="M-10 0l461 1182q26 101 113.5 155.5t219.5 63.5q20 -104 47 -180l365 -1045q40 -115 78 -176h-328l-4 33q-4 33 -16 67l-121 344h-469l-146 -411l-6 -33h-194zM313 1611.5q0 51.5 34.5 89.5t80.5 38t80.5 -38t34.5 -89.5t-34.5 -88t-80.5 -36.5t-80.5 36.5t-34.5 88z M383 580h373l-185 526zM791 1612q0 52 33.5 89.5t80.5 37.5t81 -37.5t34 -89.5t-34 -88.5t-81 -36.5t-80.5 36.5t-33.5 88.5z" />
<glyph unicode="&#xc5;" horiz-adv-x="1263" d="M-10 0l461 1182q26 101 113.5 155.5t219.5 63.5q20 -104 47 -180l365 -1045q40 -115 78 -176h-328l-4 33q-4 33 -16 67l-121 344h-469l-146 -411l-6 -33h-194zM383 580h373l-185 526zM467 1627q0 -86 54 -133.5t144 -47.5t156 56t66 139t-55 131.5t-145.5 48.5t-155 -54 t-64.5 -140zM600 1643.5q0 53.5 20.5 76.5t50 23t55.5 -31.5t26 -85t-21 -78t-51.5 -24.5t-55 33t-24.5 86.5z" />
<glyph unicode="&#xc6;" horiz-adv-x="1665" d="M8 0l639 1206q10 27 10 50.5t-24 62.5l16 43l461 -2l377 6q35 -52 41.5 -119.5t-15.5 -128.5h-47q-9 44 -67 75t-123 34l-180 8l-13 -469h267q90 0 127 37q8 -36 8 -70q0 -127 -185 -127l-217 4v-125q0 -151 9 -327h362q66 0 98 43q9 -37 9 -68q0 -76 -54.5 -104.5 t-175.5 -28.5h-532l4 147v297h-367l-200 -397q-9 -18 -13 -47h-215zM502 580h301v512l4 151q-2 -12 -17.5 -61t-25.5 -72z" />
<glyph unicode="&#xc7;" horiz-adv-x="1261" d="M86 649q0 325 192.5 530t503.5 205q145 0 267 -52t159 -128q0 -39 -44 -110.5t-109 -100.5l-39 31q0 38 -34.5 84t-64.5 72q-70 61 -160.5 61t-162 -41.5t-114.5 -113.5q-87 -146 -87 -349q0 -252 103 -420q50 -83 131 -130.5t183.5 -47.5t221 59.5t170.5 159.5 q36 -104 -20.5 -192.5t-172.5 -138t-259 -54.5q-7 -16 -7 -31t14.5 -24t37 -14t48 -15.5t47.5 -25.5q52 -34 52 -121.5t-71 -160.5t-172 -73t-148 37.5t-47 78.5t16 71q60 -60 164 -60q36 0 68 16t32 38.5t-31 38.5t-68 29t-68 43.5t-31 76.5t76 98q-184 12 -315 101 q-261 176 -261 573z" />
<glyph unicode="&#xc8;" horiz-adv-x="1052" d="M154 1317l16 43h342l377 6q35 -52 41.5 -119.5t-15.5 -128.5h-47q-9 44 -67 75t-123 34l-180 8q-13 -236 -13 -469h256q94 0 131 37q7 -38 7 -70q0 -127 -187 -127l-209 4q-1 -133 3 -292l3 -160h359q70 0 102 43q6 -43 6 -68q0 -76 -55 -104.5t-176 -28.5h-524l2 150 v937q-4 146 -16 173t-33 57zM236 1751l94 -115q46 -56 84 -88q87 -75 237 -75q85 0 123 49q-85 26 -138 86q-18 19 -41 48.5t-33 40.5t-30 27q-37 27 -108 27h-188z" />
<glyph unicode="&#xc9;" horiz-adv-x="1052" d="M154 1317l16 43h342l377 6q35 -52 41.5 -119.5t-15.5 -128.5h-47q-9 44 -67 75t-123 34l-180 8q-13 -236 -13 -469h256q94 0 131 37q7 -38 7 -70q0 -127 -187 -127l-209 4q-1 -133 3 -292l3 -160h359q70 0 102 43q6 -43 6 -68q0 -76 -55 -104.5t-176 -28.5h-524l2 150 v937q-4 146 -16 173t-33 57zM395 1522q86 26 139 86q18 19 43.5 52t40.5 48q41 43 127 43h189l-94 -115q-46 -56 -84 -88q-89 -75 -238 -75q-83 0 -123 49z" />
<glyph unicode="&#xca;" horiz-adv-x="1052" d="M154 1317l16 43h342l377 6q35 -52 41.5 -119.5t-15.5 -128.5h-47q-9 44 -67 75t-123 34l-180 8q-13 -236 -13 -469h256q94 0 131 37q7 -38 7 -70q0 -127 -187 -127l-209 4q-1 -133 3 -292l3 -160h359q70 0 102 43q6 -43 6 -68q0 -76 -55 -104.5t-176 -28.5h-524l2 150 v937q-4 146 -16 173t-33 57zM166 1497q39 6 82.5 34t65 48t61.5 60t59 57q53 47 109 47h57q67 0 176 -109q117 -121 201 -137q0 -9 -44 -25t-83 -16q-98 0 -169.5 41t-109.5 107q-29 -46 -59 -76q-75 -72 -219 -72q-39 0 -83 16t-44 25z" />
<glyph unicode="&#xcb;" horiz-adv-x="1052" d="M154 1317l16 43h342l377 6q35 -52 41.5 -119.5t-15.5 -128.5h-47q-9 44 -67 75t-123 34l-180 8q-13 -236 -13 -469h256q94 0 131 37q7 -38 7 -70q0 -127 -187 -127l-209 4q-1 -133 3 -292l3 -160h359q70 0 102 43q6 -43 6 -68q0 -76 -55 -104.5t-176 -28.5h-524l2 150 v937q-4 146 -16 173t-33 57zM207 1612q0 52 34 89.5t80.5 37.5t80.5 -37.5t34 -89.5t-34 -88.5t-80.5 -36.5t-80.5 36.5t-34 88.5zM684 1612q0 52 33.5 89.5t80.5 37.5t81 -37.5t34 -89.5t-34 -88.5t-81 -36.5t-80.5 36.5t-33.5 88.5z" />
<glyph unicode="&#xcc;" horiz-adv-x="698" d="M-10 1751l94 -115q46 -56 84 -88q89 -75 238 -75q84 0 122 49q-85 26 -138 86q-18 19 -41 48.5t-33 40.5t-30 27q-37 27 -108 27h-188zM156 1317l16 43l24 7q79 22 170 22t146 -27q-20 -356 -20 -833.5t24 -528.5h-309q4 136 4 1100q0 156 -55 217z" />
<glyph unicode="&#xcd;" horiz-adv-x="698" d="M150 1522q85 26 138 86q18 19 41 48.5t33 40t30 26.5q36 28 108 28h188l-94 -115q-46 -56 -84 -88q-89 -75 -238 -75q-84 0 -122 49zM156 1317l16 43l24 7q79 22 170 22t146 -27q-20 -356 -20 -833.5t24 -528.5h-309q4 136 4 1100q0 156 -55 217z" />
<glyph unicode="&#xce;" horiz-adv-x="698" d="M-59 1497q39 6 82.5 34t65 48t61.5 60t58 57q54 47 109 47h58q67 0 176 -109q117 -121 201 -137q0 -9 -44 -25t-83 -16q-98 0 -169.5 41t-109.5 107q-44 -71 -106 -109.5t-172 -38.5q-40 0 -83.5 16t-43.5 25zM156 1317l16 43l24 7q79 22 170 22t146 -27 q-20 -356 -20 -833.5t24 -528.5h-309q4 136 4 1100q0 156 -55 217z" />
<glyph unicode="&#xcf;" horiz-adv-x="698" d="M35 1612q0 52 34 89.5t80.5 37.5t80.5 -37.5t34 -89.5t-34 -88.5t-80.5 -36.5t-80.5 36.5t-34 88.5zM156 1317l16 43l24 7q79 22 170 22t146 -27q-20 -356 -20 -833.5t24 -528.5h-309q4 136 4 1100q0 156 -55 217zM412 1612q0 52 33.5 89.5t80.5 37.5t81 -37.5t34 -89.5 t-34 -88.5t-81 -36.5t-80.5 36.5t-33.5 88.5z" />
<glyph unicode="&#xd1;" horiz-adv-x="1593" d="M162 1317l16 43q23 15 85 25t110 4q63 -76 403 -452.5t376 -415t64 -103.5l29 -66l-8 66q-8 64 -7 80.5t1 63.5l2 326v210q0 139 -68 219l19 43q15 10 60 19.5t91 9.5t78 -25q-24 -544 -24 -874t10 -490h-178l-762 840l-37 57q-38 57 -47 80q6 -35 6 -100l-4 -287 q0 -429 20 -590h-180v33q2 266 2 731v342q0 80 -12 124t-45 87zM373 1524q85 57 140 57t119 -19q192 -59 301.5 -59t199.5 59.5t114 151.5q-99 -55 -167 -55t-204.5 38t-225.5 38t-173.5 -59.5t-103.5 -151.5z" />
<glyph unicode="&#xd2;" horiz-adv-x="1431" d="M82 657q0 -379 244 -572q141 -112 334 -112t353.5 97t246 262t90.5 373q0 163 -46.5 294t-127.5 214q-165 171 -412 171q-195 0 -350.5 -91.5t-243.5 -257.5t-88 -378zM373 1751l94 -115q69 -85 137.5 -124t168.5 -39t138 49q-85 26 -139 86q-17 19 -40 48.5t-33 40.5 t-31 27q-36 27 -107 27h-188zM385 716q0 148 39.5 265.5t110.5 186.5t160.5 69t170.5 -80.5t129.5 -219.5t48.5 -329t-87 -340.5t-216 -150.5q-97 0 -180 86.5t-129.5 225.5t-46.5 287z" />
<glyph unicode="&#xd3;" horiz-adv-x="1431" d="M82 657q0 -379 244 -572q141 -112 334 -112t353.5 97t246 262t90.5 373q0 163 -46.5 294t-127.5 214q-165 171 -412 171q-195 0 -350.5 -91.5t-243.5 -257.5t-88 -378zM385 716q0 148 39.5 265.5t110.5 186.5t160.5 69t170.5 -80.5t129.5 -219.5t48.5 -329t-87 -340.5 t-216 -150.5q-97 0 -180 86.5t-129.5 225.5t-46.5 287zM524 1522q86 26 140 86q17 19 42.5 52t39.5 48q42 43 128 43h189l-94 -115q-46 -56 -84 -88q-89 -75 -238 -75q-83 0 -123 49z" />
<glyph unicode="&#xd4;" horiz-adv-x="1431" d="M82 657q0 -379 244 -572q141 -112 334 -112t353.5 97t246 262t90.5 373q0 163 -46.5 294t-127.5 214q-165 171 -412 171q-195 0 -350.5 -91.5t-243.5 -257.5t-88 -378zM324 1497q39 6 82.5 34t65 48t61.5 60t59 57q53 47 108 47h58q67 0 176 -109q117 -121 201 -137 q0 -9 -44 -25t-83 -16q-98 0 -169.5 41t-109.5 107q-44 -71 -106 -109.5t-172 -38.5q-40 0 -83.5 16t-43.5 25zM385 716q0 148 39.5 265.5t110.5 186.5t160.5 69t170.5 -80.5t129.5 -219.5t48.5 -329t-87 -340.5t-216 -150.5q-97 0 -180 86.5t-129.5 225.5t-46.5 287z" />
<glyph unicode="&#xd5;" horiz-adv-x="1431" d="M82 657q0 -379 244 -572q141 -112 334 -112t353.5 97t246 262t90.5 373q0 163 -46.5 294t-127.5 214q-165 171 -412 171q-195 0 -350.5 -91.5t-243.5 -257.5t-88 -378zM285 1513q12 7 24 15t27.5 15.5t30.5 13.5q35 14 74 14t103 -19q192 -59 301.5 -59t199.5 60t114 153 q-101 -59 -168 -59t-203.5 37.5t-225.5 37.5t-173.5 -58.5t-103.5 -150.5zM385 716q0 148 39.5 265.5t110.5 186.5t160.5 69t170.5 -80.5t129.5 -219.5t48.5 -329t-87 -340.5t-216 -150.5q-97 0 -180 86.5t-129.5 225.5t-46.5 287z" />
<glyph unicode="&#xd6;" horiz-adv-x="1431" d="M82 657q0 -379 244 -572q141 -112 334 -112t353.5 97t246 262t90.5 373q0 163 -46.5 294t-127.5 214q-165 171 -412 171q-195 0 -350.5 -91.5t-243.5 -257.5t-88 -378zM381 1612q0 52 34 89.5t80.5 37.5t80.5 -37.5t34 -89.5t-34 -88.5t-80.5 -36.5t-80.5 36.5t-34 88.5z M385 716q0 148 39.5 265.5t110.5 186.5t160.5 69t170.5 -80.5t129.5 -219.5t48.5 -329t-87 -340.5t-216 -150.5q-97 0 -180 86.5t-129.5 225.5t-46.5 287zM858 1612q0 52 33.5 89.5t80.5 37.5t81 -37.5t34 -89.5t-34 -88.5t-81 -36.5t-80.5 36.5t-33.5 88.5z" />
<glyph unicode="&#xd8;" horiz-adv-x="1431" d="M-12 80l178 174q-82 167 -82 390.5t87 388.5t245 257t373 92t364 -149l29 29q17 20 58.5 65t66.5 74q48 -30 61.5 -45.5t16.5 -28.5t-7.5 -29t-21 -27.5t-33 -33.5t-35.5 -35l-59 -59q112 -177 112 -438q-4 -251 -131 -437q-130 -191 -343 -262q-111 -37 -236 -37 q-251 0 -400 185l-157 -158zM385 733q0 -134 25 -241l260 251l288 293q-51 94 -121 146.5t-149 52.5q-125 0 -214 -144t-89 -358zM446 373q46 -119 119.5 -188.5t165.5 -69.5t177 96q143 163 143 424q0 160 -47 295l-340 -336z" />
<glyph unicode="&#xd9;" horiz-adv-x="1480" d="M147 1317l17 43l24 7q79 22 170 22t146 -27q-21 -410 -21 -875q0 -261 203 -335q56 -21 128.5 -21t147 32.5t124.5 97t51 145.5l6 692q1 83 -17 130.5t-51 88.5l19 43q15 10 60 19.5t91 9.5t78 -25q-25 -567 -25 -907q0 -241 -166 -365q-160 -119 -413 -119 q-205 0 -356 117q-74 58 -118 154t-44 217l2 639q0 148 -40 196q-8 9 -16 21zM426 1751l94 -115q46 -56 84 -88q89 -75 238 -75q83 0 123 49q-86 26 -139 86q-18 19 -41 48.5t-33 40t-30 26.5q-36 28 -108 28h-188z" />
<glyph unicode="&#xda;" horiz-adv-x="1480" d="M147 1317l17 43l24 7q79 22 170 22t146 -27q-21 -410 -21 -875q0 -261 203 -335q56 -21 128.5 -21t147 32.5t124.5 97t51 145.5l6 692q1 83 -17 130.5t-51 88.5l19 43q15 10 60 19.5t91 9.5t78 -25q-25 -567 -25 -907q0 -241 -166 -365q-160 -119 -413 -119 q-205 0 -356 117q-74 58 -118 154t-44 217l2 639q0 148 -40 196q-8 9 -16 21zM621 1522q85 26 139 86q17 19 40 48.5t33 40t31 26.5q35 28 107 28h188l-94 -115q-46 -56 -84 -88q-89 -75 -238 -75q-84 0 -122 49z" />
<glyph unicode="&#xdb;" horiz-adv-x="1480" d="M147 1317l17 43l24 7q79 22 170 22t146 -27q-21 -410 -21 -875q0 -261 203 -335q56 -21 128.5 -21t147 32.5t124.5 97t51 145.5l6 692q1 83 -17 130.5t-51 88.5l19 43q15 10 60 19.5t91 9.5t78 -25q-25 -567 -25 -907q0 -241 -166 -365q-160 -119 -413 -119 q-205 0 -356 117q-74 58 -118 154t-44 217l2 639q0 148 -40 196q-8 9 -16 21zM381 1497q39 6 82 33t66.5 49.5t62 61t56.5 55.5q54 47 110 47h57q67 0 176 -109q122 -122 201 -137q0 -9 -44 -25t-83 -16q-97 0 -168.5 41t-110.5 107q-29 -46 -60 -76q-74 -72 -218 -72 q-39 0 -83 16t-44 25z" />
<glyph unicode="&#xdc;" horiz-adv-x="1480" d="M147 1317l17 43l24 7q79 22 170 22t146 -27q-21 -410 -21 -875q0 -261 203 -335q56 -21 128.5 -21t147 32.5t124.5 97t51 145.5l6 692q1 83 -17 130.5t-51 88.5l19 43q15 10 60 19.5t91 9.5t78 -25q-25 -567 -25 -907q0 -241 -166 -365q-160 -119 -413 -119 q-205 0 -356 117q-74 58 -118 154t-44 217l2 639q0 148 -40 196q-8 9 -16 21zM430 1612q0 52 34 89.5t80.5 37.5t80.5 -37.5t34 -89.5t-34 -88.5t-80.5 -36.5t-80.5 36.5t-34 88.5zM907 1612q0 52 33.5 89.5t80.5 37.5t81.5 -38t34.5 -89.5t-34.5 -88t-81.5 -36.5 t-80.5 36.5t-33.5 88.5z" />
<glyph unicode="&#xdf;" horiz-adv-x="1171" d="M45 952l10 62q100 27 105 96q9 126 74 234q135 223 444 223q203 0 300 -107q50 -57 50 -126t-24.5 -132.5t-60 -117.5t-71.5 -106q-84 -124 -84 -198q0 -45 76 -96q34 -22 75 -47.5t81.5 -57t74.5 -67.5q76 -82 76 -199q0 -158 -110 -249t-289 -91q-116 0 -182 48 t-66 118q0 44 25 82q0 -45 65 -78.5t141 -33.5t124.5 34.5t48.5 106.5q0 58 -98 122q-199 132 -249 222q-28 49 -28 106.5t28 117t74 128.5t66 103.5t39.5 95.5t19.5 123q0 159 -157 159q-88 0 -145.5 -62.5t-57.5 -170.5l-6 -553q0 -429 35 -641h-295v39l14 530 q0 274 -19 301q-41 58 -104 82z" />
<glyph unicode="&#xe0;" d="M55 237.5q0 103.5 61 176.5q121 147 371 147q63 0 125 -16q4 86 4 137t-5.5 95.5t-20.5 84.5q-31 82 -121 82q-66 0 -102.5 -47t-22.5 -115q-54 -43 -109 -43t-89.5 30t-34.5 79q0 95 109 156t273.5 61t272.5 -82t108 -238l-4 -303q0 -243 25 -295q35 -67 143 -67v-45 q-38 -24 -106 -43t-128.5 -19t-110 50t-56.5 100q-36 -71 -114.5 -110.5t-155.5 -39.5q-152 0 -232 80.5t-80 184zM146 1503l90 -155q118 -191 311 -191q35 0 76 18.5t41 26.5q-91 30 -151 125q-12 19 -30 52t-30 50t-31 37q-37 37 -108 37h-168zM299 273.5 q0 -56.5 42 -98.5t97 -42q96 0 178 60q-4 92 -4 278q-222 -13 -288 -107q-25 -34 -25 -90.5z" />
<glyph unicode="&#xe1;" d="M55 237.5q0 103.5 61 176.5q121 147 371 147q63 0 125 -16q4 86 4 137t-5.5 95.5t-20.5 84.5q-31 82 -121 82q-66 0 -102.5 -47t-22.5 -115q-54 -43 -109 -43t-89.5 30t-34.5 79q0 95 109 156t273.5 61t272.5 -82t108 -238l-4 -303q0 -243 25 -295q35 -67 143 -67v-45 q-38 -24 -106 -43t-128.5 -19t-110 50t-56.5 100q-36 -71 -114.5 -110.5t-155.5 -39.5q-152 0 -232 80.5t-80 184zM299 273.5q0 -56.5 42 -98.5t97 -42q96 0 178 60q-4 92 -4 278q-222 -13 -288 -107q-25 -34 -25 -90.5zM338 1202q92 30 152 125q12 19 32.5 57t36.5 60 q43 59 130 59h167l-90 -155q-117 -191 -311 -191q-35 0 -76 18.5t-41 26.5z" />
<glyph unicode="&#xe2;" d="M55 237.5q0 103.5 61 176.5q121 147 371 147q63 0 125 -16q4 86 4 137t-5.5 95.5t-20.5 84.5q-31 82 -121 82q-66 0 -102.5 -47t-22.5 -115q-54 -43 -109 -43t-89.5 30t-34.5 79q0 95 109 156t273.5 61t272.5 -82t108 -238l-4 -303q0 -243 25 -295q35 -67 143 -67v-45 q-38 -24 -106 -43t-128.5 -19t-110 50t-56.5 100q-36 -71 -114.5 -110.5t-155.5 -39.5q-152 0 -232 80.5t-80 184zM145 1202q50 10 89 56q56 65 97.5 122.5t77 90t74.5 32.5h49q35 0 67 -21.5t49 -43t45 -62t44 -62t39 -48.5q45 -52 94 -64q0 -8 -40.5 -26.5t-79 -18.5 t-68.5 6t-50 17t-36 26t-29 34.5t-27 40t-23 51.5l-9 32l-9 -32q-9 -31 -23 -51t-25.5 -39t-28 -34.5t-36.5 -26.5q-44 -24 -101.5 -24t-98.5 18.5t-41 26.5zM299 273.5q0 -56.5 42 -98.5t97 -42q96 0 178 60q-4 92 -4 278q-222 -13 -288 -107q-25 -34 -25 -90.5z" />
<glyph unicode="&#xe3;" d="M55 237.5q0 103.5 61 176.5q121 147 371 147q63 0 125 -16q4 86 4 137t-5.5 95.5t-20.5 84.5q-31 82 -121 82q-66 0 -102.5 -47t-22.5 -115q-54 -43 -109 -43t-89.5 30t-34.5 79q0 95 109 156t273.5 61t272.5 -82t108 -238l-4 -303q0 -243 25 -295q35 -67 143 -67v-45 q-38 -24 -106 -43t-128.5 -19t-110 50t-56.5 100q-36 -71 -114.5 -110.5t-155.5 -39.5q-152 0 -232 80.5t-80 184zM144 1239q68 51 111.5 51t156 -34.5t196.5 -34.5t164.5 56.5t98.5 139.5q-82 -55 -133.5 -55t-168.5 35t-187.5 35t-146.5 -55.5t-91 -137.5zM299 273.5 q0 -56.5 42 -98.5t97 -42q96 0 178 60q-4 92 -4 278q-222 -13 -288 -107q-25 -34 -25 -90.5z" />
<glyph unicode="&#xe4;" d="M55 237.5q0 103.5 61 176.5q121 147 371 147q63 0 125 -16q4 86 4 137t-5.5 95.5t-20.5 84.5q-31 82 -121 82q-66 0 -102.5 -47t-22.5 -115q-54 -43 -109 -43t-89.5 30t-34.5 79q0 95 109 156t273.5 61t272.5 -82t108 -238l-4 -303q0 -243 25 -295q35 -67 143 -67v-45 q-38 -24 -106 -43t-128.5 -19t-110 50t-56.5 100q-36 -71 -114.5 -110.5t-155.5 -39.5q-152 0 -232 80.5t-80 184zM196 1325q0 52 34 89.5t80.5 37.5t81 -37.5t34.5 -89.5t-34.5 -88.5t-81 -36.5t-80.5 36.5t-34 88.5zM299 273.5q0 -56.5 42 -98.5t97 -42q96 0 178 60 q-4 92 -4 278q-222 -13 -288 -107q-25 -34 -25 -90.5zM573 1325.5q0 52.5 33.5 89.5t80.5 37t81 -37.5t34 -89.5t-34 -88.5t-81 -36.5t-80.5 36.5t-33.5 89z" />
<glyph unicode="&#xe5;" d="M55 237.5q0 103.5 61 176.5q121 147 371 147q63 0 125 -16q4 86 4 137t-5.5 95.5t-20.5 84.5q-31 82 -121 82q-66 0 -102.5 -47t-22.5 -115q-54 -43 -109 -43t-89.5 30t-34.5 79q0 95 109 156t273.5 61t272.5 -82t108 -238l-4 -303q0 -243 25 -295q35 -67 143 -67v-45 q-38 -24 -106 -43t-128.5 -19t-110 50t-56.5 100q-36 -71 -114.5 -110.5t-155.5 -39.5q-152 0 -232 80.5t-80 184zM297 1338q0 -86 54 -133.5t144 -47.5t156 56t66 139t-55 131.5t-145.5 48.5t-155 -54t-64.5 -140zM299 273.5q0 -56.5 42 -98.5t97 -42q96 0 178 60 q-4 92 -4 278q-222 -13 -288 -107q-25 -34 -25 -90.5zM430 1354.5q0 53.5 20.5 76.5t50 23t55.5 -31.5t26 -85t-21 -78t-51.5 -24.5t-55 33t-24.5 86.5z" />
<glyph unicode="&#xe6;" horiz-adv-x="1564" d="M55 244q0 126 91 202q91 74 215 104q121 28 255 36l2 32q0 168 -16 210.5t-32 67.5q-29 48 -94.5 48t-99.5 -42.5t-34 -96.5l2 -23q-50 -34 -103.5 -34t-91.5 27t-38 80.5t53 104.5q109 105 316.5 105t303.5 -141q118 131 279 131q215 0 318 -133q87 -112 87 -283v-47 q-59 -26 -155 -29l-465 -31q4 -180 87.5 -279t205.5 -99q90 0 182 42t162 146q8 -31 8 -63q0 -90 -66 -162t-165.5 -108t-212 -36t-209.5 47.5t-156 143.5q-44 -78 -138 -134.5t-179 -56.5q-152 0 -232 80.5t-80 190.5zM319 285q0 -19 3 -29q10 -60 49 -91.5t89 -31.5 t105.5 27.5t87.5 64.5q-41 104 -41 240v39q-92 -16 -162 -52q-131 -67 -131 -167zM860 618l363 62q-2 101 -48 175.5t-126 74.5t-123 -95t-66 -217z" />
<glyph unicode="&#xe7;" horiz-adv-x="985" d="M76 475q0 160 66 295.5t183.5 215t261.5 79.5t243.5 -53t99.5 -142q0 -54 -39 -90.5t-92 -36.5t-92 45q-2 57 -39 96.5t-105.5 39.5t-122.5 -56q-110 -116 -110 -327q0 -216 128 -329q65 -58 150 -58q212 0 334 184q12 -38 12 -72q0 -113 -107 -193.5t-265 -95.5 q-9 -20 -9 -35t14.5 -24t37 -14t48 -15.5t47.5 -25.5q52 -34 52 -121.5t-71 -160.5t-172 -73t-148 37.5t-47 78.5t16 71q60 -60 164 -60q36 0 68 16t32 38.5t-31 38.5t-68 29t-68 43.5t-31 76.5t76 98q-181 10 -294 129q-122 127 -122 371z" />
<glyph unicode="&#xe8;" d="M76 465q0 165 56.5 299t163 212.5t243.5 78.5q222 0 323 -141q53 -75 66 -144q16 -90 16 -152v-47q-63 -28 -156 -28l-454 6q2 -23 2 -76q4 -149 89.5 -234t182.5 -85q226 0 353 188q49 -189 -162 -304q-121 -65 -271 -65q-185 0 -312 115q-138 123 -140 377zM199 1503 l90 -155q118 -191 311 -191q35 0 76 18.5t41 26.5q-91 30 -151 125q-12 19 -30 52t-30 50t-31 37q-37 37 -108 37h-168zM336 645l362 12q-2 103 -32 164q-53 109 -140 109q-82 0 -127 -86q-40 -77 -63 -199z" />
<glyph unicode="&#xe9;" d="M76 465q0 165 56.5 299t163 212.5t243.5 78.5q222 0 323 -141q53 -75 66 -144q16 -90 16 -152v-47q-63 -28 -156 -28l-454 6q2 -23 2 -76q4 -149 89.5 -234t182.5 -85q226 0 353 188q49 -189 -162 -304q-121 -65 -271 -65q-185 0 -312 115q-138 123 -140 377zM336 645 l362 12q-2 103 -32 164q-53 109 -140 109q-82 0 -127 -86q-40 -77 -63 -199zM401 1202q92 30 152 125q12 19 30 52t29.5 50t31.5 37q37 37 108 37h168l-91 -155q-117 -191 -311 -191q-35 0 -76 18.5t-41 26.5z" />
<glyph unicode="&#xea;" d="M76 465q0 165 56.5 299t163 212.5t243.5 78.5q222 0 323 -141q53 -75 66 -144q16 -90 16 -152v-47q-63 -28 -156 -28l-454 6q2 -23 2 -76q4 -149 89.5 -234t182.5 -85q226 0 353 188q49 -189 -162 -304q-121 -65 -271 -65q-185 0 -312 115q-138 123 -140 377zM190 1202 q50 10 89 56q56 65 97.5 122.5t77 90t74.5 32.5h49q35 0 67 -21.5t49 -43t45 -62t44 -62t39 -48.5q45 -52 94 -64q0 -8 -40.5 -26.5t-79 -18.5t-68.5 6t-50 17t-36 26t-29 34.5t-27 40t-23 51.5l-9 32l-9 -32q-9 -31 -23 -51t-25.5 -39t-28 -34.5t-36.5 -26.5 q-44 -24 -101.5 -24t-98.5 18.5t-41 26.5zM336 645l362 12q-2 103 -32 164q-53 109 -140 109q-82 0 -127 -86q-40 -77 -63 -199z" />
<glyph unicode="&#xeb;" d="M76 465q0 165 56.5 299t163 212.5t243.5 78.5q222 0 323 -141q53 -75 66 -144q16 -90 16 -152v-47q-63 -28 -156 -28l-454 6q2 -23 2 -76q4 -149 89.5 -234t182.5 -85q226 0 353 188q49 -189 -162 -304q-121 -65 -271 -65q-185 0 -312 115q-138 123 -140 377zM229 1325 q0 52 34 89.5t80.5 37.5t81 -37.5t34.5 -89.5t-34.5 -88.5t-81 -36.5t-80.5 36.5t-34 88.5zM336 645l362 12q-2 103 -32 164q-53 109 -140 109q-82 0 -127 -86q-40 -77 -63 -199zM606 1325.5q0 52.5 33.5 89.5t80.5 37t81 -37.5t34 -89.5t-34 -88.5t-81 -36.5t-80.5 36.5 t-33.5 89z" />
<glyph unicode="&#xec;" horiz-adv-x="614" d="M-63 1503l90 -155q117 -191 311 -191q35 0 76 18.5t41 26.5q-92 30 -152 125q-12 19 -32.5 57t-36.5 60q-43 59 -130 59h-167zM90 946v37q117 72 221 72q148 0 148 -195l-10 -213v-201q0 -286 22 -446h-287l11 698q0 165 -67 226q-24 22 -38 22z" />
<glyph unicode="&#xed;" horiz-adv-x="614" d="M90 946v37q117 72 221 72q148 0 148 -195l-10 -213v-201q0 -286 22 -446h-287l11 698q0 165 -67 226q-24 22 -38 22zM115 1202q91 30 151 125q12 19 30 52t30 50t32 37q36 37 107 37h168l-90 -155q-118 -191 -312 -191q-35 0 -75.5 18.5t-40.5 26.5z" />
<glyph unicode="&#xee;" horiz-adv-x="614" d="M-45 1202q50 10 89 56q56 65 97 122q86 123 152 123h49q35 0 67 -21.5t49 -43t49.5 -68.5t52.5 -74q61 -79 120 -94q0 -8 -41 -26.5t-75.5 -18.5t-61 4t-45.5 12t-34.5 19t-27 25t-23.5 30q-33 43 -46 85l-9 32l-9 -32q-8 -31 -22 -51t-25.5 -39t-28 -34.5t-36.5 -26.5 q-44 -24 -102 -24t-98.5 18.5t-40.5 26.5zM90 946v37q117 72 221 72q148 0 148 -195l-10 -213v-201q0 -286 22 -446h-287l11 698q0 165 -67 226q-24 22 -38 22z" />
<glyph unicode="&#xef;" horiz-adv-x="614" d="M12 1325q0 52 34.5 89.5t80.5 37.5t80.5 -37.5t34.5 -89.5t-34.5 -88.5t-80.5 -36.5t-80.5 36.5t-34.5 88.5zM90 946v37q117 72 221 72q148 0 148 -195l-10 -213v-201q0 -286 22 -446h-287l11 698q0 165 -67 226q-24 22 -38 22zM389 1325.5q0 52.5 33.5 89.5t80.5 37 t81 -37.5t34 -89.5t-34 -88.5t-81 -36.5t-80.5 36.5t-33.5 89z" />
<glyph unicode="&#xf1;" horiz-adv-x="1230" d="M82 946v37q117 72 221 72q60 0 96 -34.5t43 -82.5l-2 -57q134 134 238 167q51 17 104 17q125 0 203.5 -78t81.5 -192q-4 -216 -3 -424.5t23 -370.5h-278l-3 22q-3 22 -3 44l4 530q2 147 -25 212.5t-102 65.5q-129 0 -240 -100q0 -487 7 -604t16 -170h-287l2 63l8 635 q1 79 -16 134q-25 87 -72 106zM262 1239q68 51 111.5 51t156 -34.5t196.5 -34.5t164.5 56.5t98.5 139.5q-82 -55 -133.5 -55t-168.5 35t-187.5 35t-146.5 -55.5t-91 -137.5z" />
<glyph unicode="&#xf2;" horiz-adv-x="1159" d="M76 495q0 -164 84 -313q120 -209 385 -209q154 0 278.5 79.5t192 208.5t67.5 267t-38.5 240t-104.5 166q-135 131 -326 131q-154 0 -277.5 -74.5t-192 -203t-68.5 -292.5zM252 1503l90 -155q118 -191 311 -191q35 0 76 18.5t41 26.5q-91 30 -151 125q-12 19 -30 52 t-30 50t-31 37q-37 37 -108 37h-168zM354 548.5q0 95.5 11 155.5t32.5 114.5t59 89t84.5 34.5q108 0 185 -136t77 -316t-59 -289t-136 -109t-134 67t-88.5 180.5t-31.5 209z" />
<glyph unicode="&#xf3;" horiz-adv-x="1159" d="M76 495q0 -164 84 -313q120 -209 385 -209q154 0 278.5 79.5t192 208.5t67.5 267t-38.5 240t-104.5 166q-135 131 -326 131q-154 0 -277.5 -74.5t-192 -203t-68.5 -292.5zM354 548.5q0 95.5 11 155.5t32.5 114.5t59 89t84.5 34.5q108 0 185 -136t77 -316t-59 -289 t-136 -109t-134 67t-88.5 180.5t-31.5 209zM379 1202q92 30 152 125q12 19 32.5 57t36.5 60q43 59 130 59h167l-90 -155q-117 -191 -311 -191q-35 0 -76 18.5t-41 26.5z" />
<glyph unicode="&#xf4;" horiz-adv-x="1159" d="M76 495q0 -164 84 -313q120 -209 385 -209q154 0 278.5 79.5t192 208.5t67.5 267t-38.5 240t-104.5 166q-135 131 -326 131q-154 0 -277.5 -74.5t-192 -203t-68.5 -292.5zM229 1202q50 10 89 56q56 65 97.5 122.5t77 90t74.5 32.5h49q35 0 67 -21.5t49 -43t45 -62t44 -62 t39 -48.5q45 -52 94 -64q0 -8 -40.5 -26.5t-79 -18.5t-68.5 6t-50 17t-36 26t-29 34.5t-27 40t-23 51.5l-9 32l-9 -32q-9 -31 -23 -51t-25.5 -39t-28 -34.5t-36.5 -26.5q-44 -24 -101.5 -24t-98.5 18.5t-41 26.5zM354 548.5q0 95.5 11 155.5t32.5 114.5t59 89t84.5 34.5 q108 0 185 -136t77 -316t-59 -289t-136 -109t-134 67t-88.5 180.5t-31.5 209z" />
<glyph unicode="&#xf5;" horiz-adv-x="1159" d="M76 495q0 -164 84 -313q120 -209 385 -209q154 0 278.5 79.5t192 208.5t67.5 267t-38.5 240t-104.5 166q-135 131 -326 131q-154 0 -277.5 -74.5t-192 -203t-68.5 -292.5zM219 1239q68 51 111.5 51t156 -34.5t196.5 -34.5t164.5 56.5t98.5 139.5q-82 -55 -133.5 -55 t-168.5 35t-187.5 35t-146.5 -55.5t-91 -137.5zM354 548.5q0 95.5 11 155.5t32.5 114.5t59 89t84.5 34.5q108 0 185 -136t77 -316t-59 -289t-136 -109t-134 67t-88.5 180.5t-31.5 209z" />
<glyph unicode="&#xf6;" horiz-adv-x="1159" d="M76 495q0 -164 84 -313q120 -209 385 -209q154 0 278.5 79.5t192 208.5t67.5 267t-38.5 240t-104.5 166q-135 131 -326 131q-154 0 -277.5 -74.5t-192 -203t-68.5 -292.5zM287 1325q0 52 34 89.5t80.5 37.5t81 -37.5t34.5 -89.5t-34.5 -88.5t-81 -36.5t-80.5 36.5 t-34 88.5zM354 548.5q0 95.5 11 155.5t32.5 114.5t59 89t84.5 34.5q108 0 185 -136t77 -316t-59 -289t-136 -109t-134 67t-88.5 180.5t-31.5 209zM664 1325.5q0 52.5 33.5 89.5t80.5 37t81 -37.5t34 -89.5t-34 -88.5t-81 -36.5t-80.5 36.5t-33.5 89z" />
<glyph unicode="&#xf7;" horiz-adv-x="1001" d="M141 446v162q0 -8 341 -8t370 21q-9 -108 -78 -143q-66 -34 -225 -34l-369 5q-30 0 -39 -3zM340 206q0 58 42.5 100t99.5 42t98 -42t41 -100t-41 -98t-98 -40t-99.5 40t-42.5 98zM340 839q0 58 42.5 100t99.5 42t98 -42t41 -100t-41 -98.5t-98 -40.5t-99.5 40.5 t-42.5 98.5z" />
<glyph unicode="&#xf8;" horiz-adv-x="1159" d="M8 66l142 135q-32 60 -50 135q-24 95 -24 166q0 157 68.5 285.5t192 203t284.5 74.5t286 -102q73 75 105 114q48 -30 61.5 -45.5t16.5 -28.5t-7.5 -29t-21 -27.5t-33.5 -32.5q-29 -28 -39 -40q94 -135 94 -335q0 -149 -67.5 -278t-192 -208.5t-278.5 -79.5 q-209 0 -330 133l-121 -124zM354 573q0 -71 15 -159l180 174l188 194q-37 75 -88 117.5t-103 42.5t-89.5 -34.5t-59 -89t-32.5 -114.5t-11 -131zM399 295q75 -203 201 -203q85 0 144 109t59 246t-25 225z" />
<glyph unicode="&#xf9;" horiz-adv-x="1218" d="M66 946v37q41 27 100 49.5t108 22.5t81.5 -15t48.5 -44q26 -51 26 -140l-8 -403q0 -189 32 -247q31 -59 99 -59q155 0 240 97l4 442q0 227 -105 260v37q30 23 92 47.5t112 24.5t83.5 -15t49.5 -44q28 -51 28 -130l-4 -551q0 -165 45 -200q39 -35 116 -35v-45 q-21 -16 -92 -39t-121 -23t-85 18t-56 47q-41 57 -47 118q-59 -78 -156 -130.5t-213 -52.5t-194 75t-80 175l2 395q0 164 -31 250q-9 28 -27 48q-17 17 -48 30zM297 1503l90 -155q118 -191 311 -191q35 0 76 18.5t41 26.5q-91 30 -151 125q-12 19 -30 52t-30 50t-31 37 q-37 37 -108 37h-168z" />
<glyph unicode="&#xfa;" horiz-adv-x="1218" d="M66 946v37q41 27 100 49.5t108 22.5t81.5 -15t48.5 -44q26 -51 26 -140l-8 -403q0 -189 32 -247q31 -59 99 -59q155 0 240 97l4 442q0 227 -105 260v37q30 23 92 47.5t112 24.5t83.5 -15t49.5 -44q28 -51 28 -130l-4 -551q0 -165 45 -200q39 -35 116 -35v-45 q-21 -16 -92 -39t-121 -23t-85 18t-56 47q-41 57 -47 118q-59 -78 -156 -130.5t-213 -52.5t-194 75t-80 175l2 395q0 164 -31 250q-9 28 -27 48q-17 17 -48 30zM393 1202q92 30 152 125q12 19 32.5 57t36.5 60q43 59 130 59h167l-90 -155q-117 -191 -311 -191 q-35 0 -76 18.5t-41 26.5z" />
<glyph unicode="&#xfb;" horiz-adv-x="1218" d="M66 946v37q41 27 100 49.5t108 22.5t81.5 -15t48.5 -44q26 -51 26 -140l-8 -403q0 -189 32 -247q31 -59 99 -59q155 0 240 97l4 442q0 227 -105 260v37q30 23 92 47.5t112 24.5t83.5 -15t49.5 -44q28 -51 28 -130l-4 -551q0 -165 45 -200q39 -35 116 -35v-45 q-21 -16 -92 -39t-121 -23t-85 18t-56 47q-41 57 -47 118q-59 -78 -156 -130.5t-213 -52.5t-194 75t-80 175l2 395q0 164 -31 250q-9 28 -27 48q-17 17 -48 30zM240 1202q50 10 89 56q56 65 97.5 122.5t77 90t74.5 32.5h49q35 0 67 -21.5t49 -43t45 -62t44 -62t39 -48.5 q45 -52 94 -64q0 -8 -40.5 -26.5t-79 -18.5t-68.5 6t-50 17t-36 26t-29 34.5t-27 40t-23 51.5l-9 32l-9 -32q-9 -31 -23 -51t-25.5 -39t-28 -34.5t-36.5 -26.5q-44 -24 -101.5 -24t-98.5 18.5t-41 26.5z" />
<glyph unicode="&#xfc;" horiz-adv-x="1218" d="M66 946v37q41 27 100 49.5t108 22.5t81.5 -15t48.5 -44q26 -51 26 -140l-8 -403q0 -189 32 -247q31 -59 99 -59q155 0 240 97l4 442q0 227 -105 260v37q30 23 92 47.5t112 24.5t83.5 -15t49.5 -44q28 -51 28 -130l-4 -551q0 -165 45 -200q39 -35 116 -35v-45 q-21 -16 -92 -39t-121 -23t-85 18t-56 47q-41 57 -47 118q-59 -78 -156 -130.5t-213 -52.5t-194 75t-80 175l2 395q0 164 -31 250q-9 28 -27 48q-17 17 -48 30zM301 1325q0 52 34 89.5t80.5 37.5t81 -37.5t34.5 -89.5t-34.5 -88.5t-81 -36.5t-80.5 36.5t-34 88.5z M678 1325.5q0 52.5 33.5 89.5t80.5 37t81 -37.5t34 -89.5t-34 -88.5t-81 -36.5t-80.5 36.5t-33.5 89z" />
<glyph unicode="&#xff;" horiz-adv-x="1007" d="M6 -305q20 -25 64.5 -41t105 -16t114 28.5t75.5 81.5l96 211l24 43l-24 10q-24 9 -53.5 37.5t-40.5 65.5l-179 569q-49 163 -129 236q-31 29 -45 32l-2 37q36 26 89.5 46t119.5 20t106 -41t64 -131q20 -116 160 -508q44 -88 49 -103l10 42q10 43 21 71l129 369 q28 79 28 128.5t-34 69.5l-4 37q28 27 75.5 46.5t89.5 19.5q72 0 72 -76q0 -53 -51 -180l-408 -1004q-75 -185 -124 -239q-68 -74 -120.5 -89.5t-101.5 -15.5q-92 0 -144.5 70t-31.5 174zM254 1325q0 52 34 89.5t80.5 37.5t81 -37.5t34.5 -89.5t-34.5 -88.5t-81 -36.5 t-80.5 36.5t-34 88.5zM631 1325.5q0 52.5 33.5 89.5t80.5 37t81 -37.5t34 -89.5t-34 -88.5t-81 -36.5t-80.5 36.5t-33.5 89z" />
<glyph unicode="&#x152;" horiz-adv-x="1781" d="M92 637q0 203 80 367.5t231 261t347 96.5l477 -2l377 6q35 -52 41.5 -119.5t-15.5 -128.5h-47q-9 44 -67 75t-123 34l-181 8l-12 -469h266q90 0 127 37q9 -41 9 -70q0 -127 -185 -127l-217 4v-125q0 -131 8 -327h363q65 0 98 43q8 -39 8 -68q0 -76 -54.5 -104.5 t-174.5 -28.5h-690q-216 0 -381 99q-285 171 -285 538zM395 743q0 -172 60.5 -311.5t165 -218t231.5 -78.5h68v957q0 82 -11 143h-184q-126 0 -225 -128q-105 -136 -105 -364z" />
<glyph unicode="&#x153;" horiz-adv-x="1759" d="M76 502q0 157 68.5 285.5t192 203t277.5 74.5q96 0 192 -46t144 -116q45 64 130.5 108t170 44t149.5 -19.5t106.5 -49t72 -72.5t46 -81t23.5 -85q13 -68 13 -130v-47l-19 -8q-50 -20 -137 -20l-465 6q1 -169 88 -282t205 -113q90 0 182.5 42t161.5 146q21 -81 -10 -152 t-96 -118q-139 -99 -326 -99q-99 0 -195 45.5t-145 118.5q-55 -69 -155.5 -116.5t-189.5 -47.5t-152 17.5t-107.5 45.5t-81 67.5t-59 79t-39.5 85.5t-25.5 82t-13.5 72q-6 53 -6 80zM354 548.5q0 -95.5 31.5 -209t88.5 -180.5t134 -67t136 109t59 289t-77 316t-185 136 q-47 0 -84.5 -34.5t-59 -89t-32.5 -114.5t-11 -155.5zM1034 645l381 12q-2 103 -32 164q-53 109 -137.5 109t-139 -79.5t-72.5 -205.5z" />
<glyph unicode="&#x178;" horiz-adv-x="1103" d="M0 1317l18 43q68 33 188 33t159 -50q37 -103 138.5 -303.5t135.5 -261.5l9 28q10 28 24 52l153 277q27 48 27 92t-29 90l19 43q62 24 125 24t123 -36q0 -36 -37 -129t-74 -152l-254 -401l-2 -314q0 -245 16 -352h-295v33l2 350q0 199 -2 233q-13 14 -43 64l-196 344 q-27 49 -57.5 106t-43 80t-30.5 49q-28 41 -74 58zM225 1611.5q0 51.5 34.5 89.5t80.5 38t80.5 -38t34.5 -89.5t-34.5 -88t-80.5 -36.5t-80.5 36.5t-34.5 88zM702 1612q0 52 34 89.5t81 37.5t81 -37.5t34 -89.5t-34 -88.5t-81 -36.5t-81 36.5t-34 88.5z" />
<glyph unicode="&#x2c6;" horiz-adv-x="823" d="M47 1202q50 10 89 56q56 65 97.5 122.5t77 90t74.5 32.5h49q35 0 67 -21.5t49 -43t45 -62t44 -62t39 -48.5q45 -52 94 -64q0 -8 -40.5 -26.5t-79 -18.5t-68.5 6t-50 17t-36 26t-29 34.5t-27 40t-23 51.5l-9 32l-9 -32q-9 -31 -23 -51t-25.5 -39t-28 -34.5t-36.5 -26.5 q-44 -24 -101.5 -24t-98.5 18.5t-41 26.5z" />
<glyph unicode="&#x2dc;" horiz-adv-x="778" d="M31 1239q68 51 111.5 51t156 -34.5t196.5 -34.5t164.5 56.5t98.5 139.5q-82 -55 -133.5 -55t-168.5 35t-187.5 35t-146.5 -55.5t-91 -137.5z" />
<glyph unicode="&#x2000;" horiz-adv-x="910" />
<glyph unicode="&#x2001;" horiz-adv-x="1821" />
<glyph unicode="&#x2002;" horiz-adv-x="910" />
<glyph unicode="&#x2003;" horiz-adv-x="1821" />
<glyph unicode="&#x2004;" horiz-adv-x="607" />
<glyph unicode="&#x2005;" horiz-adv-x="455" />
<glyph unicode="&#x2006;" horiz-adv-x="303" />
<glyph unicode="&#x2007;" horiz-adv-x="303" />
<glyph unicode="&#x2008;" horiz-adv-x="227" />
<glyph unicode="&#x2009;" horiz-adv-x="364" />
<glyph unicode="&#x200a;" horiz-adv-x="101" />
<glyph unicode="&#x2010;" horiz-adv-x="632" d="M39 422v162q0 -9 259 -9t288 21q-6 -69 -26.5 -94t-35 -38t-39 -21t-43 -13t-50.5 -7q-48 -3 -109 -3l-205 4q-31 0 -39 -2z" />
<glyph unicode="&#x2011;" horiz-adv-x="632" d="M39 422v162q0 -9 259 -9t288 21q-6 -69 -26.5 -94t-35 -38t-39 -21t-43 -13t-50.5 -7q-48 -3 -109 -3l-205 4q-31 0 -39 -2z" />
<glyph unicode="&#x2012;" horiz-adv-x="632" d="M39 422v162q0 -9 259 -9t288 21q-6 -69 -26.5 -94t-35 -38t-39 -21t-43 -13t-50.5 -7q-48 -3 -109 -3l-205 4q-31 0 -39 -2z" />
<glyph unicode="&#x2013;" horiz-adv-x="962" d="M59 422v160q0 -9 312 -9h360q160 0 182 17q-24 -149 -222 -165q-36 -3 -81 -3l-514 2q-28 0 -37 -2z" />
<glyph unicode="&#x2014;" horiz-adv-x="1431" d="M53 422v160q0 -9 547 -9h596q160 0 182 17q-24 -149 -222 -165q-36 -3 -81 -3l-985 2q-29 0 -37 -2z" />
<glyph unicode="&#x2018;" horiz-adv-x="559" d="M98 1153q0 78 78 184.5t225 200.5l52 -65q-129 -124 -129 -240q0 -57 16 -69q22 -15 39 -17q8 -49 -32.5 -101.5t-102 -52.5t-104 41t-42.5 119z" />
<glyph unicode="&#x2019;" horiz-adv-x="552" d="M96 1059q129 124 129 239q0 58 -17 69q-23 15 -38 17q-8 49 32.5 101.5t102 52.5t104 -41t42.5 -119t-78 -184.5t-226 -200.5z" />
<glyph unicode="&#x201a;" horiz-adv-x="528" d="M55 -225q129 121 129 239q0 58 -16 69q-24 15 -39 17q-8 49 32.5 101.5t102 52.5t104 -41t42.5 -119t-78 -184.5t-226 -200.5z" />
<glyph unicode="&#x201c;" horiz-adv-x="899" d="M98 1153q0 78 78 184.5t225 200.5l52 -65q-129 -124 -129 -240q0 -57 16 -69q22 -15 39 -17q8 -49 -32.5 -101.5t-102 -52.5t-104 41t-42.5 119zM504 1153q0 78 78 184.5t225 200.5l51 -65q-129 -125 -129 -240q0 -57 17 -69q23 -15 38 -17q9 -49 -32 -101.5 t-102.5 -52.5t-103.5 41t-42 119z" />
<glyph unicode="&#x201d;" horiz-adv-x="913" d="M80 1059q129 124 129 239q0 58 -17 69q-23 15 -38 17q-9 49 32 101.5t102.5 52.5t103.5 -41t42 -119t-78 -184.5t-225 -200.5zM485 1059q129 121 129 239q0 58 -16 69q-24 15 -39 17q-8 49 32.5 101.5t102 52.5t104 -41t42.5 -119t-78 -184.5t-225 -200.5z" />
<glyph unicode="&#x201e;" horiz-adv-x="888" d="M55 -225q129 121 129 239q0 58 -16 69q-24 15 -39 17q-8 49 32.5 101.5t102 52.5t104 -41t42.5 -119t-78 -184.5t-226 -200.5zM461 -225q129 124 129 239q0 58 -16 69q-24 15 -39 17q-9 49 32 101.5t102.5 52.5t103.5 -41t42 -119t-78 -184.5t-225 -200.5z" />
<glyph unicode="&#x2022;" horiz-adv-x="868" d="M137 505.5q0 122.5 86 208t208.5 85.5t209 -86t86.5 -208t-86.5 -208t-209 -86t-208.5 86t-86 208.5z" />
<glyph unicode="&#x2026;" horiz-adv-x="1357" d="M127 112q0 58 42.5 100t99.5 42t98 -42t41 -100t-41 -98.5t-98 -40.5t-99.5 40.5t-42.5 98.5zM547 112q0 58 42 100t99.5 42t98 -42t40.5 -100t-40.5 -98.5t-98 -40.5t-99.5 40.5t-42 98.5zM956 112q0 58 42.5 100t100 42t98 -42t40.5 -100t-40.5 -98.5t-98 -40.5 t-100 40.5t-42.5 98.5z" />
<glyph unicode="&#x202f;" horiz-adv-x="364" />
<glyph unicode="&#x2039;" horiz-adv-x="755" d="M41 506l16 14q16 14 27 27l268 319q55 65 110 99t100.5 34t84 -13.5t55.5 -29.5q-36 -12 -90 -66l-18 -18l-221 -303q-16 -22 -43 -42.5t-31 -20.5q4 0 31 -21t43 -43l221 -303l42 -37q41 -38 66 -47q-50 -39 -145 -39q-39 0 -95.5 33t-109.5 96l-268 320z" />
<glyph unicode="&#x203a;" horiz-adv-x="755" d="M43 55q50 -39 145 -39q40 0 96 33t109 96l269 320l43 41l-16 14q-16 14 -27 27l-269 319q-56 66 -110.5 99.5t-100 33.5t-84 -13.5t-55.5 -29.5q37 -12 91 -66l18 -18l221 -303q15 -22 42 -42.5t31 -20.5q-4 0 -31 -21t-42 -43l-221 -303l-42 -37q-41 -38 -67 -47z" />
<glyph unicode="&#x205f;" horiz-adv-x="455" />
<glyph unicode="&#x20ac;" horiz-adv-x="1183" d="M14 438l25 162q48 -10 102 -10q-2 0 -2 47.5t4 95.5h-51q-39 0 -78 -8l25 162q63 -10 131 -10q59 236 240.5 376t437.5 140q166 0 247 -43.5t81 -107t-50 -122.5q-12 57 -97.5 93t-221.5 36t-245.5 -106t-149.5 -269h454q112 0 199 33q-16 -90 -68 -129q-51 -39 -102 -42 q-90 -7 -162 -5h-338q0 -75 8 -143h355q120 0 194 33q-18 -93 -70 -131q-50 -37 -103 -41q-92 -7 -169 -5h-178q97 -333 418 -333q169 0 313 153v-18q0 -131 -101.5 -203t-275.5 -72q-253 0 -412.5 126.5t-209.5 348.5h-68q-48 0 -82 -8z" />
<glyph unicode="&#x2122;" horiz-adv-x="1685" d="M55 1292l4 62q71 0 134 108h118l-16 -108h129q48 0 74 26q6 -18 6 -46.5t-30.5 -54.5t-82.5 -26l-96 2l-2 -290v-39q0 -46 4.5 -56.5t11 -23.5t15.5 -17q29 -12 61.5 -12t74.5 16t50 29q2 -8 2 -26q0 -72 -53.5 -120t-150.5 -48q-187 0 -187 217l8 274q0 99 -45 124 q-16 9 -29 9zM571 1292v41q63 37 129 37q119 0 119 -88q0 -18 -2 -29q44 56 93 88.5t117 32.5t121 -35t69 -86q28 37 51 59.5t66.5 42t106.5 19.5t121 -51t58 -115l-2 -260q0 -197 16 -262h-190q-4 45 -4 135l2 219q0 122 -16.5 165.5t-75.5 43.5t-127 -65l-4 -209 q0 -207 18 -289h-190q-5 88 -5 158l2 233q0 94 -20.5 133t-78.5 39t-132 -84q0 -342 16 -479h-196l8 459q0 118 -58 143q-8 4 -12 4z" />
<glyph unicode="&#xe000;" horiz-adv-x="1055" d="M0 0v1055h1055v-1055h-1055z" />
</font>
</defs>
</svg>
